<?xml version="1.0" encoding="UTF-8" standalone="no"?>
<!-- Generator: Adobe Illustrator 17.0.1, SVG Export Plug-In . SVG Version: 6.00 Build 0)  -->

<svg
   version="1.1"
   x="0px"
   y="0px"
   width="512"
   height="512"
   viewBox="0 0 512.00001 512.00001"
   enable-background="new 0 0 86 86"
   xml:space="preserve"
   id="svg2"
   inkscape:version="1.1.2 (0a00cf5339, 2022-02-04)"
   sodipodi:docname="harbour-osmscout-v2.svg"
   inkscape:export-filename="/home/karry/SailfishOS/projects/osmscout-sailfish/icons/172x172/harbour-osmscout.png"
   inkscape:export-xdpi="193.8"
   inkscape:export-ydpi="193.8"
   xmlns:inkscape="http://www.inkscape.org/namespaces/inkscape"
   xmlns:sodipodi="http://sodipodi.sourceforge.net/DTD/sodipodi-0.dtd"
   xmlns:xlink="http://www.w3.org/1999/xlink"
   xmlns="http://www.w3.org/2000/svg"
   xmlns:svg="http://www.w3.org/2000/svg"
   xmlns:rdf="http://www.w3.org/1999/02/22-rdf-syntax-ns#"
   xmlns:cc="http://creativecommons.org/ns#"
   xmlns:dc="http://purl.org/dc/elements/1.1/"><metadata
     id="metadata27"><rdf:RDF><cc:Work
         rdf:about=""><dc:format>image/svg+xml</dc:format><dc:type
           rdf:resource="http://purl.org/dc/dcmitype/StillImage" /></cc:Work></rdf:RDF></metadata><defs
     id="defs25"><linearGradient
       inkscape:collect="always"
       id="linearGradient12235"><stop
         style="stop-color:#337b24;stop-opacity:0.00232611"
         offset="0"
         id="stop12231" /><stop
         style="stop-color:#cff0c8;stop-opacity:0.59746665"
         offset="1"
         id="stop12233" /></linearGradient><inkscape:path-effect
       effect="bspline"
       id="path-effect4484"
       is_visible="true"
       lpeversion="1"
       weight="33.333333"
       steps="2"
       helper_size="0"
       apply_no_weight="true"
       apply_with_weight="true"
       only_selected="false" /><inkscape:path-effect
       effect="bspline"
       id="path-effect4180"
       is_visible="true"
       lpeversion="1"
       weight="33.333333"
       steps="2"
       helper_size="0"
       apply_no_weight="true"
       apply_with_weight="true"
       only_selected="false" /><inkscape:path-effect
       effect="bspline"
       id="path-effect1827"
       is_visible="true"
       lpeversion="1"
       weight="33.333333"
       steps="2"
       helper_size="0"
       apply_no_weight="true"
       apply_with_weight="true"
       only_selected="false" /><inkscape:path-effect
       effect="bspline"
       id="path-effect1823"
       is_visible="true"
       lpeversion="1"
       weight="33.333333"
       steps="2"
       helper_size="0"
       apply_no_weight="true"
       apply_with_weight="true"
       only_selected="false" /><inkscape:path-effect
       effect="spiro"
       id="path-effect4217"
       is_visible="true" /><inkscape:path-effect
       effect="spiro"
       id="path-effect4213"
       is_visible="true" /><linearGradient
       gradientTransform="matrix(0,1,1,0,0,-655.1376)"
       y2="0.76490003"
       x2="740.37012"
       y1="85.232498"
       x1="655.90253"
       gradientUnits="userSpaceOnUse"
       id="SVGID_1_-7"><stop
         id="stop4193"
         style="stop-color:#00ba3f;stop-opacity:1"
         offset="0" /><stop
         id="stop4195"
         style="stop-color:#47b531;stop-opacity:1"
         offset="1" /></linearGradient><inkscape:path-effect
       effect="bspline"
       id="path-effect4484-3"
       is_visible="true"
       lpeversion="1"
       weight="33.333333"
       steps="2"
       helper_size="0"
       apply_no_weight="true"
       apply_with_weight="true"
       only_selected="false" /><inkscape:path-effect
       effect="bspline"
       id="path-effect4484-3-7"
       is_visible="true"
       lpeversion="1"
       weight="33.333333"
       steps="2"
       helper_size="0"
       apply_no_weight="true"
       apply_with_weight="true"
       only_selected="false" /><inkscape:path-effect
       effect="bspline"
       id="path-effect4484-3-3"
       is_visible="true"
       lpeversion="1"
       weight="33.333333"
       steps="2"
       helper_size="0"
       apply_no_weight="true"
       apply_with_weight="true"
       only_selected="false" /><linearGradient
       inkscape:collect="always"
       xlink:href="#SVGID_1_-7-2"
       id="linearGradient4161"
       x1="6.0553517"
       y1="80.975349"
       x2="68.927933"
       y2="18.746954"
       gradientUnits="userSpaceOnUse"
       gradientTransform="matrix(6.0093896,0,0,5.9953162,-2.4731467,-427.226)" /><linearGradient
       gradientTransform="matrix(0,1,1,0,0,-655.1376)"
       y2="0.76490003"
       x2="740.37012"
       y1="85.232498"
       x1="655.90253"
       gradientUnits="userSpaceOnUse"
       id="SVGID_1_-7-2"><stop
         id="stop4193-9"
         style="stop-color:#008c30;stop-opacity:1"
         offset="0" /><stop
         id="stop4195-1"
         style="stop-color:#47B531"
         offset="1" /></linearGradient><inkscape:path-effect
       effect="bspline"
       id="path-effect4484-3-2"
       is_visible="true"
       lpeversion="1"
       weight="33.333333"
       steps="2"
       helper_size="0"
       apply_no_weight="true"
       apply_with_weight="true"
       only_selected="false" /><linearGradient
       inkscape:collect="always"
       xlink:href="#linearGradient12235"
       id="linearGradient12237"
       x1="239.84106"
       y1="-674.77716"
       x2="284.42813"
       y2="-831.86847"
       gradientUnits="userSpaceOnUse"
       gradientTransform="translate(-23.51394,609.92617)" /></defs><sodipodi:namedview
     pagecolor="#ffffff"
     bordercolor="#666666"
     borderopacity="1"
     objecttolerance="10"
     gridtolerance="10"
     guidetolerance="10"
     inkscape:pageopacity="0"
     inkscape:pageshadow="2"
     inkscape:window-width="3840"
     inkscape:window-height="2082"
     id="namedview23"
     showgrid="false"
     inkscape:zoom="1.372093"
     inkscape:cx="450.04237"
     inkscape:cy="342.17797"
     inkscape:window-x="1920"
     inkscape:window-y="0"
     inkscape:window-maximized="1"
     inkscape:current-layer="Layer_1"
     units="px"
     inkscape:pagecheckerboard="0" /><g
     id="Layer_2"
     display="none"
     style="display:none"
     transform="translate(0,426.00002)" /><g
     id="Layer_1"
     transform="translate(0,426.00002)"><linearGradient
       id="SVGID_1_"
       gradientUnits="userSpaceOnUse"
       x1="655.90253"
       y1="85.232498"
       x2="740.37012"
       y2="0.76490003"
       gradientTransform="matrix(0,1,1,0,0,-655.1376)"><stop
         offset="0"
         style="stop-color:#008C7E"
         id="stop7" /><stop
         offset="1"
         style="stop-color:#47B531"
         id="stop9" /></linearGradient><path
       style="color:#000000;overflow:visible;opacity:1;fill:#000000;fill-opacity:0.999121;stroke-width:0.408;stroke-linecap:round"
       id="path3760"
       d="m 746.82122,-164.61009 c 1.71167,-4.22394 3.07129,-8.57956 4.45971,-12.91732 0.23338,-0.79022 0.47267,-1.57871 0.70014,-2.37065 1.12984,-3.9336 0.31933,-1.2762 1.53023,-5.40232 0.92841,-3.16355 1.92446,-6.30663 2.86792,-9.46574 0.99243,-3.5465 2.06337,-7.07834 2.73916,-10.70311 0.41901,-2.24746 0.45054,-2.7517 0.74056,-5.01958 0.0581,-0.88474 0.13177,-1.76861 0.17437,-2.65423 0.0411,-0.85437 0.087,-1.70963 0.0767,-2.56493 -0.0326,-2.69878 -0.38673,-5.41314 -0.88225,-8.06315 -0.15541,-0.83116 -0.35501,-1.65345 -0.53251,-2.48018 -0.77892,-3.58326 -1.90709,-7.07778 -2.51821,-10.69611 -0.1889,-1.47726 -0.37894,-2.96552 -0.34795,-4.45831 0.0124,-0.59659 0.0842,-1.49021 0.12661,-2.08196 0.10717,-1.18481 0.57774,-3.52504 -1.3844,-3.39317 -0.28518,0.0192 -0.52794,0.21923 -0.79191,0.32885 -0.71103,0.5674 -2.44717,1.71211 -2.72482,2.58722 -0.0821,0.25869 -0.0536,0.54015 -0.0804,0.81023 0.14968,0.29279 0.23691,0.62711 0.44904,0.87837 0.83296,0.98662 3.36088,1.98442 4.47952,2.40392 2.89187,1.08448 3.58443,1.15485 6.82765,1.98738 8.88061,1.93978 17.84802,3.44045 26.76451,5.1989 3.01365,0.60981 6.05101,1.1053 9.124,1.27347 1.94924,0.10668 2.47072,0.0807 4.42626,0.0823 4.20734,-0.046 8.41139,-0.26285 12.61893,-0.15541 1.99112,0.0523 3.96123,0.3468 5.90765,0.75193 0.42435,0.0883 0.85288,0.16023 1.27125,0.27355 0.37861,0.10255 0.74404,0.2487 1.11607,0.37305 1.09787,0.47414 2.24108,1.01123 2.92178,2.04331 0.43327,0.65693 0.45143,0.88813 0.70472,1.64888 0.0526,0.36895 0.16125,0.73418 0.15786,1.10685 -0.009,1.01712 -0.38382,2.39509 -0.68983,3.31195 -0.52704,1.57913 -1.0974,2.80245 -1.92764,4.2565 -0.43495,0.76174 -0.93098,1.48693 -1.39647,2.2304 -0.54631,0.73149 -1.06843,1.48169 -1.63895,2.19446 -1.16057,1.44997 -2.62983,3.03396 -3.88089,4.40048 -1.87345,2.04634 -3.73962,4.09458 -5.57758,6.17296 -1.77271,1.91152 -3.34826,3.99978 -5.1296,5.90341 -1.03886,1.11018 -1.21935,1.21992 -2.35828,2.22158 -0.36165,0.28695 -1.68837,1.38631 -2.1771,1.60751 -0.35339,0.15994 -0.74228,0.26203 -1.12982,0.27882 -0.70687,0.0306 -2.0227,-0.30962 -2.57359,-0.74046 -0.42208,-0.33009 -0.67404,-0.83315 -1.01105,-1.24972 -0.22189,-0.68785 -0.52498,-1.35463 -0.66565,-2.06356 -0.37222,-1.87585 -0.36995,-4.14791 -0.27222,-6.0317 0.11792,-2.2729 0.42213,-4.4387 0.86487,-6.67063 0.22555,-1.13701 0.5202,-2.25921 0.78031,-3.38881 1.09199,-4.12514 2.29426,-8.25805 4.06218,-12.1536 0.81725,-1.80078 1.42897,-2.84344 2.36713,-4.55327 1.64658,-2.93459 3.86785,-5.45186 6.39568,-7.6488 1.71385,-1.36031 3.47157,-2.66171 5.15737,-4.05722 0.67184,-0.55543 1.33625,-1.12077 2.13258,-1.49271 0.47521,-0.22196 0.97219,-0.39398 1.45822,-0.59113 0.82001,-0.38959 2.02256,-0.82667 2.63459,-1.52971 0.64685,-0.74306 1.06188,-1.71095 1.28828,-2.65765 0.12617,-0.5276 0.15389,-1.07398 0.23084,-1.61096 10e-4,-0.52871 0.0381,-1.05849 0.004,-1.58612 -0.10266,-1.60736 -0.53068,-3.66423 -1.5103,-4.99004 -0.23975,-0.32448 -0.5496,-0.59078 -0.82439,-0.88617 -0.3246,-0.22683 -0.62959,-0.48467 -0.97378,-0.68047 -1.33127,-0.75735 -3.28697,-1.15401 -4.812,-1.14048 -0.40219,0.004 -0.80159,0.0674 -1.20239,0.10114 -1.56603,0.39616 -3.11725,1.07281 -3.97014,2.53528 -0.63042,1.08099 -0.68652,1.84616 -0.95739,3.07501 -0.0816,0.77398 -0.18148,1.54625 -0.24473,2.32194 -0.27426,3.36359 -0.33619,6.73712 -0.62974,10.10041 -0.29563,3.38698 -0.46185,4.45073 -0.88756,7.84946 -1.14014,8.72877 -3.72055,17.16406 -5.89301,25.66845 -1.39633,5.50736 -2.37874,11.00579 -2.74469,16.68222 -0.2337,3.6251 -0.22461,6.62624 -0.27081,10.25848 -0.0768,5.75258 0.2052,11.50675 0.0463,17.25875 -0.0703,2.54655 -0.13804,3.01998 -0.33343,5.4128 -0.2278,2.49392 -0.83315,4.63292 -2.41761,6.58347 0.54431,0.28937 1.01861,0.81699 1.63294,0.8681 0.41411,0.0344 0.71283,-0.4273 1.06776,-0.6434 0.40182,-0.24467 0.80043,-0.49457 1.20246,-0.7389 1.42868,-0.86827 2.88389,-1.63235 4.38061,-2.37647 0.62695,-0.30135 3.34275,-1.6284 3.89098,-1.79368 2.74778,-0.8284 7.24343,-1.4934 9.90194,-1.86432 4.28379,-0.59769 7.64529,-0.90582 11.92263,-1.3452 4.29461,-0.38245 4.76114,-0.44131 8.78308,-0.74079 0.98399,-0.0733 1.97023,-0.11705 2.95307,-0.2044 2.71667,-0.24143 5.42245,-0.64632 8.12985,-0.97185 4.88202,-0.50727 9.7924,-0.064 14.67631,0.16303 4.27664,0.19878 5.13495,0.20781 9.49387,0.34262 6.9036,0.18929 13.80921,0.2866 20.71518,0.32221 4.5514,-0.0705 9.09098,0.31449 13.63061,0.57534 4.37341,0.2513 4.94275,0.27032 9.27349,0.48286 3.48997,0.16002 6.97955,0.32422 10.47306,0.38002 0.49723,0.008 4.54513,0.0315 5.07514,0.0612 1.00012,0.0559 1.99532,0.1794 2.99299,0.2691 1.42202,0.20065 2.84667,0.38343 4.26606,0.60195 2.31662,0.35665 7.96456,1.32492 10.28319,1.72277 3.75858,0.64494 7.51583,1.29604 11.26889,1.97233 1.94202,0.353 3.87089,0.77293 5.80982,1.14168 0.68071,0.12946 1.45331,0.30703 2.15835,0.26912 0.34275,-0.0184 0.67701,-0.11366 1.01551,-0.17048 0.29026,-0.1172 0.59594,-0.20174 0.87076,-0.35159 1.2497,-0.68142 2.13749,-2.10535 2.54613,-3.43776 0.12193,-0.39757 0.16298,-0.81558 0.24448,-1.22337 -0.006,-0.44944 0.0341,-0.90172 -0.0166,-1.34833 -0.24668,-2.17139 -1.19206,-4.31233 -2.31752,-6.15997 -0.3035,-0.49824 -0.64706,-0.97093 -0.97059,-1.45639 -1.63158,-2.25267 -3.71293,-4.10604 -6.19951,-5.36596 -0.54551,-0.2764 -1.11401,-0.50489 -1.67101,-0.75734 -4.15604,-1.54701 -8.61383,-2.06045 -13.02401,-2.19535 -1.07362,-0.0328 -2.14822,-0.0123 -3.22233,-0.0185 -11.99779,0.51005 -23.99434,1.07452 -35.9845,1.74601 -14.06539,0.81561 -28.1421,1.54774 -42.22847,1.8856 -2.47641,0.0594 -4.95349,0.0866 -7.43023,0.12987 -2.32706,0.019 -4.65404,0.0595 -6.98117,0.0569 -5.48221,-0.006 -9.05435,-0.0776 -14.55074,-0.34995 -7.02203,-0.34795 -14.0268,-0.98161 -21.03229,-1.5596 -9.43343,-0.81204 -18.87274,-1.57141 -28.3294,-2.0585 -2.2268,-0.1147 -4.45365,-0.23736 -6.68253,-0.29989 -2.36293,-0.0663 -4.72737,-0.0577 -7.09106,-0.0865 -14.47912,0.0157 -28.92881,1.00378 -43.36819,1.96711 -11.05292,0.656 -22.11496,1.38139 -33.1905,1.51349 -1.72441,0.0206 -3.44906,-7.3e-4 -5.1736,-0.001 -9.62948,-0.21279 -19.22289,-1.11742 -28.82342,-1.82487 -6.92066,-0.5542 -13.86124,-0.81147 -20.78464,-1.31527 -3.19393,-0.28545 -6.40428,-0.63253 -9.49278,-1.52446 -0.96992,-0.3456 -1.94571,-0.78627 -2.36916,-1.79802 -0.34461,-0.82336 -0.24522,-1.03755 -0.25762,-1.97658 0.19136,-2.78885 1.06999,-5.46133 2.55257,-7.83094 0.35119,-0.56131 0.75356,-1.08893 1.13034,-1.6334 1.73381,-2.21198 3.69589,-4.22711 5.8622,-6.01651 1.18883,-0.98199 2.49093,-1.94132 3.72207,-2.8687 4.98018,-3.40598 10.00362,-6.74862 15.00224,-10.12811 5.8286,-3.83851 11.51006,-7.89321 17.07253,-12.10651 6.57923,-5.14775 13.05946,-10.41936 19.65287,-15.54933 7.67072,-5.853 15.24466,-11.82522 22.67019,-17.98628 5.33433,-4.37889 10.43536,-9.03476 15.79479,-13.38354 2.91059,-2.36174 4.3997,-3.44732 7.37355,-5.69447 6.7489,-5.03907 13.62004,-9.90975 20.52507,-14.73138 5.99142,-4.2216 12.03993,-8.35921 18.14159,-12.41928 4.28952,-2.71336 8.58526,-5.41413 12.83744,-8.18617 3.12515,-2.06234 6.22478,-4.16305 9.42432,-6.10902 1.57668,-0.98274 3.25394,-1.76653 5.02763,-2.31216 0.11506,-0.0305 1.0738,-0.29223 1.23157,-0.30641 0.83179,-0.0747 2.09323,0.61061 2.81508,0.9402 2.14019,1.1065 4.2109,2.33879 6.21292,3.67788 2.40093,1.71027 4.76116,3.4744 7.18691,5.15046 0.72965,0.41718 1.43354,0.88305 2.18896,1.25154 2.97714,1.45225 5.74498,2.38432 8.90488,3.50967 5.85089,2.0837 11.73701,4.07086 17.60207,6.11429 4.45849,1.664 8.9925,3.29639 13.02814,5.86877 1.62141,1.03352 1.92772,1.35952 3.37461,2.55705 2.71737,2.30596 5.0583,5.00727 7.67697,7.41635 0.64284,0.5914 1.3104,1.15535 1.9656,1.73303 2.55899,2.15924 5.11922,4.32456 7.85425,6.2606 1.71578,1.21454 2.16478,1.46967 3.9315,2.59343 3.29599,1.97878 6.748,3.68298 10.236,5.2931 4.14127,1.92865 8.37117,3.64468 12.64672,5.24946 0.95706,0.35243 1.9103,0.71545 2.87119,1.0573 1.68567,0.5997 4.83373,1.6619 6.54881,2.22416 0.66944,0.21946 4.35265,1.40355 5.22501,1.64765 0.66572,0.18627 1.34259,0.33007 2.01389,0.49511 2.09453,0.33914 4.41197,0.4576 6.31264,-0.67215 0.25057,-0.14893 0.47218,-0.34194 0.70826,-0.51291 0.87259,-0.81967 1.78026,-1.72182 0.93178,-2.99456 -0.46526,-0.69791 -1.32061,-1.01983 -2.01586,-1.38035 -3.15212,-1.22949 -6.44852,-2.03298 -9.6882,-2.99405 -3.28591,-0.96875 -6.59678,-1.87574 -9.8028,-3.09249 -0.80767,-0.30652 -1.60464,-0.64054 -2.40695,-0.96081 -6.18186,-2.50017 -12.36356,-4.99611 -18.61954,-7.3057 -5.82448,-2.17438 -12.00429,-2.97415 -18.14319,-3.68779 -3.70733,-0.43097 -8.03848,-0.82036 -11.78057,-1.17275 -0.78607,-0.0692 -5.98538,-0.44996 -7.30687,-0.79487 -0.31349,-0.0818 -0.72111,-0.24203 -0.79644,-0.55714 -0.0562,-0.23515 0.46786,0.22206 0.7045,0.17251 0.41716,-0.0873 0.75953,-0.3879 1.14918,-0.56062 0.69215,-0.30682 1.39665,-0.58497 2.09498,-0.87745 4.75273,-1.82782 9.78265,-2.776 14.58641,-4.44708 0.92906,-0.32319 1.83853,-0.70014 2.7578,-1.0502 3.35404,-1.38579 6.51672,-3.20511 9.40009,-5.40953 1.76162,-1.3468 2.43279,-2.02712 4.07572,-3.52833 3.96989,-3.77837 7.20853,-8.21822 10.56313,-12.52797 0.49342,-0.62498 2.22207,-2.8305 2.82289,-3.53643 0.28946,-0.3401 0.94784,-1.20189 1.51907,-1.42311 0.0807,-0.0312 -0.0853,0.15694 -0.15505,0.20817 -0.0925,0.068 -0.21053,0.0919 -0.31579,0.13778 0.29365,1.71767 0.30271,3.48056 0.64879,5.19057 0.12108,0.59828 0.22764,1.20794 0.45911,1.77276 0.29966,0.73123 0.74867,1.39192 1.123,2.08787 3.41633,4.59922 7.74538,7.46338 12.812,10.00988 1.26326,0.63492 2.55998,1.20096 3.83998,1.80144 4.68533,2.06702 9.40485,4.08074 14.24652,5.75858 3.99222,1.38346 5.42749,1.7614 9.57306,3.00143 4.43475,1.26948 8.88474,2.48382 13.3206,3.74937 1.65715,0.47279 4.00186,1.12495 5.67995,1.69267 0.71724,0.24265 1.42024,0.52553 2.13036,0.7883 0.67153,0.31356 1.34535,0.62225 2.01458,0.94067 2.03399,0.96777 3.11951,1.53398 5.23359,2.50488 10.39489,4.77387 -3.14163,-1.56023 9.20469,4.15206 1.76744,0.81774 3.52258,1.66183 5.28386,2.49275 5.58243,2.67086 11.10023,5.50419 16.29343,8.88088 2.6971,1.75364 3.0255,2.06695 5.6574,4.03069 3.9118,3.06149 7.7761,6.23645 11.1445,9.90279 1.8362,1.99853 2.6307,3.09936 4.3058,5.23701 0.6881,0.97325 1.3864,1.93932 2.0642,2.91975 1.4741,2.13245 2.8925,4.30312 4.3652,6.4366 1.3202,1.91253 3.3942,4.85245 4.7841,6.71041 0.8186,1.09432 1.67,2.16373 2.505,3.24559 2.9491,3.75581 6.0641,7.39622 9.7242,10.48363 2.2026,1.85799 3.0846,2.38813 5.4494,4.03036 3.7178,2.46812 7.803,4.26164 11.8535,6.09156 3.2849,1.48402 2.8696,1.31251 6.316,2.97838 6.2163,3.1036 12.3077,6.44977 18.2351,10.07391 1.6251,1.00947 3.2338,2.04468 4.8458,3.07473 0.3873,0.24749 0.7768,0.49153 1.1646,0.73835 0.2909,0.18521 0.6137,0.32865 0.8715,0.55773 0.083,0.0736 0.073,0.20929 0.1096,0.31393 -0.094,-0.0165 -0.1938,-0.0864 -0.2818,-0.0496 -0.1784,0.0746 -0.2945,0.25229 -0.4563,0.35817 -0.2833,0.18538 -0.5722,0.36471 -0.8762,0.51376 -1.5175,0.74407 -3.1713,1.20941 -4.7753,1.71887 -5.2179,1.59603 -10.5479,2.97097 -16.0014,3.44636 -1.5325,0.13358 -3.0731,0.14529 -4.6097,0.21793 -1.6451,-0.0232 -3.2907,-0.0198 -4.9352,-0.0697 -2.6635,-0.0808 -9.2291,-0.45634 -11.6304,-0.57973 -8.4813,-0.4358 -16.9652,-0.82099 -25.4484,-1.21828 -10.9576,-0.60071 -21.9239,-1.14939 -32.8643,-2.02387 -0.9115,-0.0729 -14.27624,-1.27256 -15.14257,-1.35018 -10.75124,-1.00152 -21.52557,-1.71644 -32.29968,-2.41654 -2.42815,-0.15779 -4.85799,-0.29002 -7.28518,-0.46198 -2.44655,-0.17333 -4.89042,-0.38257 -7.33563,-0.57385 -11.82967,-0.95831 -23.61251,-2.36608 -35.36732,-3.98653 -1.15845,-0.15976 -2.31777,-0.31334 -3.47535,-0.47928 -2.36219,-0.33864 -3.92059,-0.57443 -6.25219,-0.99948 -3.37207,-0.61473 -6.72065,-1.36154 -10.07548,-2.0621 -3.92858,-0.85112 -7.8895,-1.55943 -11.80472,-2.4725 -0.0939,-0.45179 0.0132,0.26388 0.4897,0.0929 0.36255,-0.13013 0.57972,-0.50795 0.88277,-0.74574 0.47367,-0.37168 0.94626,-0.7467 1.44641,-1.08189 1.63969,-1.09889 2.10088,-1.23968 3.92328,-2.12282 0.79054,-0.30187 1.5692,-0.63691 2.37162,-0.90562 1.48004,-0.49561 4.05047,-1.14604 5.52909,-1.51346 1.97536,-0.49086 3.81458,-0.93135 5.81457,-1.30519 0.94716,-0.17705 1.90131,-0.31432 2.85197,-0.47148 5.34804,-0.65182 10.73427,-0.88742 16.10653,-1.25436 4.06235,-0.18552 8.0599,-0.97831 12.09338,-1.42837 1.15655,-0.12904 2.3168,-0.22259 3.4752,-0.33389 8.10238,-0.59678 16.22885,-0.6809 24.34367,-1.00703 6.91378,-0.40576 13.83812,-0.57777 20.75816,-0.84511 7.42151,-0.30682 14.82333,-0.95043 22.22862,-1.50989 2.25525,-0.2448 4.53505,-0.24677 6.79125,-0.47598 1.1452,-0.11634 2.2596,-0.36007 3.3742,-0.63494 1.0107,-0.33526 2.9334,-0.89759 3.5064,-1.86053 0.1534,-0.25774 0.1911,-0.56861 0.2866,-0.85292 -0.037,-0.31228 -0.038,-0.63112 -0.1117,-0.93684 -0.4317,-1.78854 -1.9518,-3.04342 -3.3118,-4.13696 -0.9463,-0.61509 -1.229,-0.86641 -2.3258,-1.28059 -2.5565,-0.96541 -5.3611,-1.07616 -8.0532,-1.26565 -4.24242,-0.2009 -8.49421,-0.25752 -12.73975,-0.11571 -3.27524,0.1094 -5.17833,0.26121 -8.43475,0.47622 -1.30203,0.10288 -2.60492,0.19543 -3.90609,0.30862 -3.79292,0.32993 -3.60164,0.37236 -7.39545,0.71571 -4.29384,0.3886 -8.59241,0.64819 -12.89662,0.88715 -7.51543,0.40543 -15.04335,0.43638 -22.56747,0.42922 -6.34591,-0.0974 -12.68905,0.0963 -19.03263,0.23293 -1.15715,0.0232 -2.31421,0.0516 -3.47146,0.0696 -2.28958,0.0356 -4.5878,0.072 -6.87792,0.0299 -0.9795,-0.018 -1.27561,-0.14786 -0.51863,0.0864 0.0921,0.40294 -0.0639,0.97409 0.27629,1.20884 0.3567,0.24614 0.86164,-0.097 1.2941,-0.12523 0.64784,-0.0423 1.29687,-0.0654 1.94575,-0.0862 2.73362,-0.0878 5.46997,-0.0878 8.2046,-0.10248 6.47113,0.10248 12.89245,-0.72567 19.29695,-1.53284 5.39624,-0.63972 10.7904,-1.31568 16.21999,-1.58482 3.86505,-0.14028 7.72625,-0.33493 11.57968,-0.66621 0.41871,-0.0379 0.83987,-0.0547 1.25611,-0.11381 0.89113,-0.12652 3.63029,-0.64634 4.44936,-0.80115 1.94634,-0.36786 3.88266,-0.77079 5.82,-1.18266 0.64947,-0.16096 1.30203,-0.30998 1.94842,-0.48289 1.35156,-0.36155 2.68468,-0.78962 4.03541,-1.15423 1.78994,-0.48318 3.5961,-0.87215 5.41209,-1.24085 0.65731,-0.075 1.31269,-0.16936 1.97193,-0.22484 1.57222,-0.13233 3.83514,-0.21779 5.39507,-0.26729 2.57222,-0.0816 5.14204,-0.10702 7.71523,-0.0956 3.53389,0.0446 7.06679,0.14223 10.60049,0.20174 1.2074,0.0222 2.4151,-0.0764 3.6112,-0.23518 0.5721,-0.0759 1.2848,-0.15083 1.7905,-0.47744 0.2752,-0.17774 0.4712,-0.45535 0.7067,-0.68302 0.087,-0.35438 0.2472,-0.69852 0.2605,-1.06314 0.1063,-2.91042 -4.6571,-4.05701 -6.6308,-4.6754 -8.25748,-2.26102 -16.84525,-2.52266 -25.34725,-2.81419 -8.65015,-0.13908 -17.28455,0.47518 -25.92204,0.831 -8.33527,0.37911 -16.67433,0.13737 -24.9993,-0.32751 -0.9092,-0.0584 -1.8184,-0.11671 -2.7276,-0.17506 -1.1068,-0.071 -1.20724,1.49422 -0.10044,1.56524 v 0 c 0.91353,0.0586 1.82707,0.11723 2.74061,0.17584 8.37559,0.46746 16.76538,0.70986 25.1513,0.32863 8.5981,-0.3543 17.19309,-0.96561 25.80376,-0.8306 8.3623,0.28626 16.80997,0.53393 24.93506,2.74431 1.4538,0.44885 4.4498,1.1012 5.3858,2.57124 0.124,0.19465 0.1064,0.45964 0.2692,0.6378 -0.04,0.0878 -0.044,0.20398 -0.1201,0.26347 -0.3563,0.27894 -0.9753,0.31727 -1.3709,0.37015 -1.1293,0.15098 -2.2696,0.24776 -3.4098,0.22562 -3.5402,-0.0596 -7.0796,-0.15761 -10.62002,-0.20195 -2.5956,-0.0112 -5.18779,0.0141 -7.78241,0.0967 -1.58779,0.0506 -3.91841,0.13871 -5.5147,0.27649 -0.70357,0.0607 -1.40282,0.16392 -2.10423,0.24588 -1.85582,0.37719 -3.70119,0.77592 -5.53045,1.26972 -1.33309,0.35986 -2.64871,0.78266 -3.98245,1.14011 -0.62931,0.16865 -1.26463,0.31402 -1.89695,0.47103 -1.92472,0.4092 -3.84834,0.80954 -5.782,1.17508 -0.58255,0.11013 -3.59156,0.67951 -4.30273,0.78084 -0.41384,0.059 -0.83263,0.0754 -1.24894,0.11318 -3.83463,0.32981 -7.67705,0.52255 -11.52324,0.66238 -5.46903,0.27301 -10.90282,0.9486 -16.33818,1.5952 -6.34224,0.79935 -12.70093,1.62311 -19.10928,1.52055 -2.75518,0.0148 -5.51241,0.0135 -8.26652,0.10403 -0.67718,0.0223 -1.35459,0.0458 -2.03053,0.0924 -0.48091,0.0331 -1.03401,-0.11546 -1.43869,0.14644 -0.50618,0.32759 -0.70424,0.97887 -1.05635,1.4683 0.19882,0.10039 0.37876,0.25408 0.59646,0.30116 0.32488,0.0703 0.66391,0.0372 0.99625,0.0433 0.56125,0.0104 1.12269,0.006 1.68404,0.006 2.9019,-2e-4 5.80386,-0.0305 8.70485,-0.10599 6.33182,-0.13641 12.6632,-0.32999 18.99735,-0.23257 7.55362,0.007 15.11105,-0.0244 22.65593,-0.43163 4.32633,-0.24034 8.64692,-0.50164 12.96283,-0.89223 3.71533,-0.33624 3.65858,-0.39047 7.36583,-0.71309 1.29446,-0.11265 2.59061,-0.20477 3.88591,-0.30715 3.21472,-0.21248 5.12846,-0.36481 8.35985,-0.47307 4.19951,-0.1407 8.40519,-0.0853 12.60169,0.11213 2.49738,0.17399 5.12188,0.25682 7.50338,1.12414 0.9497,0.34589 1.1809,0.55449 2.0053,1.08216 1.2158,0.96744 2.3921,1.9706 2.8735,3.50374 0.018,0.0584 0.069,0.11581 0.055,0.1752 -0.08,0.3244 -0.4833,0.45267 -0.7196,0.57597 -0.6297,0.3286 -1.2893,0.59746 -1.9748,0.78511 -1.0233,0.25421 -2.0497,0.48584 -3.1016,0.59248 -2.2609,0.22921 -4.5453,0.23215 -6.80521,0.47697 -7.38611,0.55802 -14.76875,1.20017 -22.17101,1.50661 -6.92085,0.26737 -13.84602,0.43939 -20.76061,0.8452 -8.14391,0.32749 -16.29961,0.41098 -24.43088,1.01298 -1.17617,0.11331 -2.35419,0.2088 -3.5285,0.33994 -4.0013,0.44682 -7.96691,1.23349 -11.99675,1.41875 -5.42221,0.37035 -10.85878,0.60694 -16.25583,1.27177 -0.97199,0.16115 -1.94754,0.30214 -2.91597,0.48345 -2.01688,0.3776 -3.89346,0.82624 -5.88497,1.32157 -1.57706,0.39225 -4.13642,1.04061 -5.69973,1.5679 -0.84479,0.28495 -1.66434,0.63987 -2.49651,0.9598 -0.7512,0.36674 -1.5197,0.69996 -2.25359,1.10021 -1.13299,0.61792 -2.50492,1.5141 -3.49763,2.36593 -0.98747,0.84732 -1.76835,1.3462 -1.36767,2.834 0.0748,0.27785 0.47128,0.33029 0.70692,0.49544 3.92734,0.91425 7.89922,1.62851 11.84003,2.4803 3.37344,0.70444 6.74061,1.45498 10.13148,2.07273 2.34975,0.42807 3.92355,0.66621 6.30252,1.00725 1.15761,0.16595 2.31696,0.31954 3.47544,0.47931 11.78534,1.6246 23.59882,3.03573 35.4592,3.99643 2.4529,0.19183 4.90445,0.40161 7.35868,0.57549 2.4256,0.17185 4.85385,0.30399 7.28041,0.46167 10.76211,0.69932 21.52447,1.41327 32.26374,2.41374 0.91358,0.0819 14.22604,1.27695 15.17064,1.35244 10.9533,0.87538 21.9324,1.42483 32.9028,2.02615 8.4798,0.39713 16.9603,0.78216 25.4382,1.21777 2.4265,0.12468 9.0134,0.5017 11.6923,0.58181 1.6767,0.0501 3.3546,0.0454 5.0319,0.068 1.5798,-0.0765 3.1637,-0.0909 4.7393,-0.22954 5.5453,-0.48784 10.9658,-1.88292 16.272,-3.50666 1.7157,-0.54585 3.5233,-1.03372 5.1253,-1.87977 0.6259,-0.33056 1.6933,-0.99208 1.9981,-1.71851 0.165,-0.39308 0.079,-0.84895 0.1183,-1.27342 -0.1972,-0.26645 -0.3483,-0.57408 -0.5915,-0.79934 -0.2546,-0.23592 -0.5843,-0.3749 -0.8771,-0.56129 -0.3849,-0.245 -0.7716,-0.48722 -1.156,-0.73289 -1.6221,-1.03646 -3.2408,-2.07811 -4.8761,-3.09368 -5.9714,-3.6507 -12.1079,-7.02208 -18.3707,-10.14792 -3.468,-1.67593 -3.059,-1.50766 -6.3604,-2.99902 -3.9612,-1.78939 -7.9588,-3.53827 -11.5975,-5.9474 -2.2912,-1.58829 -3.1599,-2.11084 -5.2928,-3.90626 -3.5916,-3.02333 -6.6412,-6.59618 -9.5333,-10.27752 -0.8256,-1.06929 -1.6675,-2.12618 -2.4768,-3.20787 -1.3803,-1.8448 -3.4458,-4.77226 -4.7566,-6.67117 -1.4783,-2.14157 -2.9015,-4.32087 -4.382,-6.46088 -0.6928,-1.00136 -1.4069,-1.98782 -2.1104,-2.98173 -1.7281,-2.20295 -2.522,-3.30446 -4.4186,-5.36577 -3.4263,-3.72386 -7.351,-6.95347 -11.3283,-10.06361 -2.6752,-1.99417 -3.0231,-2.32287 -5.7621,-4.1024 -5.2467,-3.40871 -10.8182,-6.27347 -16.45723,-8.97038 -1.76849,-0.83425 -3.53082,-1.68168 -5.30547,-2.50274 -12.53529,-5.79963 1.29628,0.67024 -9.17966,-4.14045 -2.3343,-1.07195 -3.02488,-1.45738 -5.24429,-2.50991 -0.7082,-0.33585 -1.42191,-0.65997 -2.13287,-0.98996 -0.73579,-0.27151 -1.46441,-0.56334 -2.20739,-0.81451 -1.69071,-0.57158 -4.04547,-1.22684 -5.71816,-1.70405 -4.42885,-1.26353 -8.87174,-2.47616 -13.2996,-3.74325 -4.09883,-1.22553 -5.53665,-1.6046 -9.4823,-2.97124 -4.79906,-1.66224 -9.47667,-3.65846 -14.12092,-5.70622 -1.25415,-0.58748 -2.52438,-1.14179 -3.76244,-1.76244 -4.78164,-2.39707 -8.91003,-5.08543 -12.1815,-9.38555 -0.32653,-0.57623 -0.72194,-1.11854 -0.97957,-1.72869 -0.21375,-0.50622 -0.31358,-1.0548 -0.42311,-1.59326 -0.37642,-1.85043 -0.32472,-3.76623 -0.76691,-5.6053 -0.27958,-0.34936 -0.4443,-0.83683 -0.83876,-1.04807 -0.66162,-0.35432 -1.42613,0.25813 -1.83242,0.63847 -1.48199,1.38732 -2.53443,3.18293 -3.87275,4.69267 -3.30044,4.24021 -6.48378,8.61105 -10.38391,12.33393 -1.57152,1.43842 -2.24529,2.11953 -3.92789,3.40875 -2.77508,2.12629 -5.81836,3.88383 -9.04827,5.22102 -0.89075,0.34012 -1.7718,0.70682 -2.67225,1.02038 -4.8494,1.68871 -9.93124,2.63733 -14.72469,4.49811 -0.76823,0.3285 -1.57077,0.5862 -2.30469,0.98551 -1.115,0.60665 -2.68884,1.34911 -1.84535,3.0657 0.23376,0.47573 0.88023,0.63035 1.3918,0.76911 1.2525,0.33974 6.65587,0.73965 7.37742,0.80313 3.73757,0.35191 8.02321,0.7371 11.72853,1.16697 6.02134,0.69855 12.08535,1.47198 17.79908,3.60342 6.24332,2.3047 12.41215,4.7963 18.58153,7.29109 0.82008,0.32699 1.6347,0.668 2.46023,0.98096 3.2333,1.22577 6.5709,2.14329 9.88466,3.11924 3.15167,0.93485 6.35436,1.72438 9.43079,2.89221 0.28815,0.13824 0.58119,0.26675 0.86447,0.41473 0.15777,0.0824 0.29502,0.20259 0.4573,0.27573 0.0601,0.0271 0.36055,-0.0455 0.2518,0.19416 -0.0951,0.20966 -0.58109,0.68323 -0.72429,0.83156 -0.156,0.12174 -0.30083,0.25933 -0.46801,0.3652 -1.55005,0.98161 -3.52235,0.80685 -5.24117,0.55338 -0.64153,-0.15681 -1.28859,-0.2925 -1.92459,-0.47041 -0.86591,-0.24224 -4.52717,-1.41911 -5.19071,-1.63663 -1.68876,-0.55358 -4.84227,-1.61728 -6.50387,-2.20837 -0.95785,-0.34075 -1.90805,-0.70261 -2.86207,-1.05392 -4.23977,-1.59099 -8.4341,-3.2926 -12.54057,-5.20511 -3.42471,-1.58022 -6.81398,-3.25298 -10.05171,-5.19257 -1.73285,-1.10132 -2.16334,-1.34512 -3.84673,-2.53556 -2.69729,-1.90743 -5.21986,-4.04413 -7.74363,-6.17168 -0.6382,-0.56202 -1.28858,-1.1105 -1.91461,-1.68605 -2.64878,-2.43517 -5.01352,-5.16983 -7.76642,-7.49614 -1.53671,-1.26532 -1.86209,-1.60968 -3.57857,-2.69978 -4.12647,-2.62062 -8.74941,-4.30293 -13.30662,-5.99759 -5.85806,-2.04097 -11.73646,-4.02733 -17.58098,-6.10677 -3.01574,-1.07298 -5.80655,-2.01354 -8.66508,-3.39856 -0.71582,-0.34682 -1.38291,-0.78631 -2.07436,-1.17947 -2.43252,-1.68035 -4.79774,-3.45123 -7.20677,-5.16396 -2.07316,-1.38512 -4.21635,-2.66247 -6.43519,-3.80165 -1.21239,-0.54951 -2.44393,-1.17504 -3.81772,-1.04065 -0.18014,0.0176 -1.20873,0.30063 -1.34176,0.33614 -1.89518,0.58893 -3.69344,1.4177 -5.37929,2.47057 -3.21333,1.95474 -6.32744,4.0631 -9.4658,6.13513 -4.25629,2.77475 -8.55656,5.47753 -12.84975,8.19428 -6.11143,4.06658 -12.16965,8.21079 -18.17068,12.43911 -6.92113,4.83288 -13.80821,9.71504 -20.57273,14.76602 -3.00691,2.27247 -4.48781,3.35164 -7.43197,5.74083 -5.3584,4.34833 -10.4592,9.00276 -15.79228,13.38146 -7.41274,6.15078 -14.97423,12.11227 -22.63181,17.95544 -6.588,5.1259 -13.06348,10.39265 -19.63679,15.53698 -5.53973,4.19673 -11.19888,8.2343 -17.00393,12.05739 -5.02077,3.39448 -10.06751,6.75047 -15.06756,10.17476 -1.26842,0.95579 -2.58296,1.92395 -3.80665,2.93715 -2.26574,1.87599 -4.31809,3.98837 -6.1252,6.3106 -0.40325,0.58712 -0.83463,1.15587 -1.20975,1.76134 -1.6236,2.62062 -2.57314,5.57624 -2.74905,8.6543 0.0303,0.52325 -0.004,1.05422 0.0908,1.56975 0.37596,2.04977 1.85415,3.00936 3.66945,3.651 3.19466,0.91657 6.50905,1.29339 9.81285,1.58152 6.92296,0.50305 13.86291,0.76183 20.78313,1.31517 9.63877,0.71017 19.27045,1.61856 28.93842,1.8291 1.73671,2.3e-4 3.47355,0.0215 5.21015,6.8e-4 11.09826,-0.13275 22.18301,-0.85896 33.25862,-1.51656 14.3983,-0.96063 28.80682,-1.94654 43.24473,-1.96374 2.34661,0.0284 4.69396,0.0194 7.03981,0.0851 2.22204,0.0623 4.44207,0.18452 6.66203,0.29883 9.44394,0.4863 18.87051,1.24489 28.29124,2.05582 7.02887,0.57991 14.05699,1.21523 21.10249,1.56381 5.52251,0.27323 9.11516,0.34498 14.6223,0.35101 2.33201,0.003 4.66386,-0.0381 6.99579,-0.0571 2.48322,-0.0434 4.96678,-0.0708 7.44967,-0.13034 14.09999,-0.33833 28.19032,-1.07095 42.26931,-1.88735 11.95816,-0.66976 23.92268,-1.23111 35.88829,-1.74358 1.04766,0.005 2.09577,-0.0153 3.14297,0.0161 4.21773,0.1263 8.48445,0.60186 12.46695,2.05909 0.51452,0.2309 1.03938,0.44004 1.54357,0.69271 2.27342,1.1393 4.17515,2.82043 5.66799,4.87261 0.30131,0.44911 0.6207,0.88661 0.90394,1.34733 1.0061,1.63655 1.85002,3.51708 2.12007,5.43616 0.0476,0.33837 0.0282,0.68282 0.0423,1.02422 -0.0495,0.30064 -0.0644,0.60907 -0.14854,0.90191 -0.22037,0.76709 -0.68319,1.64749 -1.24243,2.22869 -0.35806,0.37213 -0.56458,0.41548 -1.02219,0.62669 -0.21225,0.0483 -0.41966,0.12903 -0.63676,0.14495 -0.62344,0.0457 -1.34979,-0.12963 -1.94066,-0.24199 -1.947,-0.37026 -3.88386,-0.79207 -5.83401,-1.14624 -3.75789,-0.67711 -7.51996,-1.32911 -11.28339,-1.97487 -2.32376,-0.39872 -8.01206,-1.37396 -10.32806,-1.72976 -1.44579,-0.2221 -2.89699,-0.40738 -4.34548,-0.61107 -1.03612,-0.0917 -2.0698,-0.21719 -3.10836,-0.27513 -0.5386,-0.03 -4.54419,-0.0527 -5.06456,-0.061 -3.4794,-0.0553 -6.95486,-0.21934 -10.43074,-0.37852 -4.32052,-0.21202 -4.89284,-0.23119 -9.25626,-0.48192 -4.56829,-0.2625 -9.13653,-0.64867 -13.71664,-0.57815 -6.8925,-0.0355 -13.78464,-0.13262 -20.67479,-0.32148 -4.34017,-0.13414 -5.20304,-0.14336 -9.46144,-0.34127 -4.97334,-0.23114 -9.97347,-0.6775 -14.94447,-0.15391 -2.68095,0.32241 -5.36077,0.72543 -8.05091,0.96438 -0.98762,0.0877 -1.97865,0.13181 -2.96742,0.20546 -4.03941,0.30087 -4.50728,0.35994 -8.82072,0.7442 -4.28359,0.44024 -7.71894,0.75572 -12.00804,1.35635 -3.08641,0.4322 -7.21982,1.04603 -10.29349,1.98025 -0.56141,0.17064 -3.30534,1.51153 -3.9523,1.82255 -1.25247,0.6234 -1.95094,0.94889 -3.15893,1.63559 -0.50627,0.28779 -2.0055,1.21609 -2.53881,1.54293 -0.31232,0.1914 -0.8272,0.22357 -0.93783,0.57276 -0.1561,0.49274 0.18187,1.01762 0.2728,1.52643 1.81248,-2.27362 2.47599,-4.54542 2.75849,-7.43889 0.19866,-2.44543 0.26699,-2.9219 0.33848,-5.52071 0.15824,-5.75188 -0.12159,-11.50585 -0.0463,-17.2583 0.0627,-4.9709 0.10033,-9.93282 0.68828,-14.87754 0.32736,-2.7532 0.79602,-5.09831 1.38194,-7.7933 0.2835,-1.30395 0.59774,-2.60103 0.89661,-3.90155 2.18842,-8.56803 4.78589,-17.06684 5.92965,-25.86177 0.43006,-3.43665 0.59693,-4.50375 0.89549,-7.92938 0.29181,-3.34799 0.36103,-6.70504 0.62564,-10.05393 0.0569,-0.72019 0.14571,-1.43751 0.21857,-2.15627 0.19061,-0.93103 0.25153,-1.62377 0.67574,-2.45776 0.56293,-1.10672 1.74012,-1.58351 2.86099,-1.91769 0.32142,-0.0325 0.64125,-0.0913 0.96425,-0.0975 1.24914,-0.0238 2.915,0.28538 4.02665,0.87302 0.25537,0.135 0.48428,0.31501 0.72642,0.47251 0.19814,0.19381 0.42402,0.36284 0.59443,0.58145 0.84619,1.08558 1.20124,2.87435 1.29947,4.20734 0.0337,0.45687 0.006,0.9162 0.01,1.3743 -0.15015,1.21303 -0.0834,1.34064 -0.52185,2.44545 -0.10905,0.27479 -0.21641,0.56029 -0.40147,0.79085 -0.49045,0.61103 -1.5894,0.98914 -2.2655,1.31767 -0.18878,0.0766 -1.40598,0.56634 -1.62239,0.66908 -0.88261,0.41902 -1.63271,1.04139 -2.37911,1.66009 -1.69555,1.40418 -3.46677,2.70951 -5.1872,4.08254 -2.66261,2.32349 -5.00697,4.97828 -6.74087,8.0775 -0.97805,1.78502 -1.58688,2.82082 -2.44012,4.70525 -1.80082,3.97715 -3.03088,8.19349 -4.14251,12.40441 -0.26635,1.16122 -0.56853,2.3148 -0.79905,3.48366 -0.45252,2.29459 -0.77167,4.57601 -0.88592,6.91348 -0.096,1.96446 -0.0981,4.621 0.36159,6.56733 0.21188,0.89717 0.65067,1.72506 0.97601,2.58759 0.53039,0.5525 0.96307,1.21925 1.59117,1.6575 0.87884,0.61321 2.54783,0.90753 3.59009,0.79556 0.54956,-0.059 1.08263,-0.25782 1.58386,-0.49078 0.53142,-0.24698 1.92184,-1.40133 2.33226,-1.72789 1.21886,-1.07665 1.38624,-1.17268 2.49637,-2.35948 1.78089,-1.90389 3.35734,-3.9911 5.12933,-5.90311 1.833,-2.07291 3.69464,-4.11525 5.56277,-6.15645 1.29548,-1.41549 2.78011,-3.01649 3.97832,-4.51866 0.59607,-0.7473 1.1411,-1.53392 1.71166,-2.30088 0.48735,-0.78202 1.00762,-1.54445 1.46205,-2.34604 1.3528,-2.38629 2.81918,-5.71622 2.7717,-8.52303 -0.008,-0.46689 -0.15094,-0.92163 -0.22642,-1.38245 -0.34588,-0.96363 -0.39339,-1.31486 -0.98536,-2.14289 -0.89122,-1.24662 -2.24731,-1.95547 -3.63112,-2.52385 -0.42592,-0.13899 -0.84526,-0.30004 -1.27776,-0.41699 -0.42534,-0.115 -0.86085,-0.18851 -1.2923,-0.27792 -2.03527,-0.42179 -4.09518,-0.72753 -6.17673,-0.78213 -4.22055,-0.10616 -8.43745,0.10543 -12.65773,0.15491 -1.91737,-7e-4 -2.40232,0.0249 -4.31307,-0.0781 -3.00952,-0.16221 -5.98344,-0.6513 -8.93467,-1.248 -8.88781,-1.75259 -17.82595,-3.25015 -26.67882,-5.17949 -3.1518,-0.80534 -3.80313,-0.86797 -6.6053,-1.91231 -1.04421,-0.38917 -2.24016,-0.92801 -3.23526,-1.47686 -0.19511,-0.10762 -0.36446,-0.25803 -0.5595,-0.36577 -0.0532,-0.0294 -0.11834,-0.0276 -0.17751,-0.0413 -0.13573,-0.03 -0.21475,-0.0111 -0.0296,-0.24429 0.12334,-0.15535 0.282,-0.27919 0.42825,-0.41321 0.49557,-0.45414 1.0168,-0.88031 1.54623,-1.29405 0.33936,-0.30459 0.13958,-0.016 -0.0749,-0.41817 -0.0276,-0.0517 -10e-4,-0.22417 0.0284,-0.1735 0.31867,0.54809 -0.14436,1.56466 -0.0491,2.1443 -0.0479,0.67256 -0.1183,1.53607 -0.13053,2.20935 -0.0286,1.57546 0.16646,3.14608 0.36993,4.70484 0.23256,1.36773 0.24127,1.54634 0.5659,2.92175 0.61899,2.62255 1.42328,5.20046 1.96534,7.84219 0.72157,3.34642 1.33654,6.73099 1.38037,10.16685 0.0107,0.83681 -0.0346,1.6736 -0.074,2.50955 -0.0403,0.85335 -0.11004,1.70505 -0.16506,2.55757 -0.28347,2.22495 -0.31145,2.69727 -0.72118,4.90295 -0.66503,3.58002 -1.72767,7.06677 -2.70558,10.56953 -0.94506,3.16478 -1.94286,6.31346 -2.87287,9.48267 -1.20391,4.10254 -0.41073,1.50292 -1.52667,5.39006 -0.22409,0.78058 -0.45979,1.55777 -0.68968,2.33665 -1.36637,4.26891 -2.70629,8.55399 -4.37923,12.71532 -0.48093,0.99937 0.93239,1.67951 1.41333,0.68014 z" /><path
       style="fill:none;fill-rule:evenodd;stroke:#000000;stroke-width:1px;stroke-linecap:butt;stroke-linejoin:miter;stroke-opacity:1"
       d="m 777.67183,-371.19488 c 2.19914,-5.65404 4.40035,-11.31339 7.38754,-21.98444 2.98719,-10.67105 6.76002,-26.35566 8.3455,-35.16733 1.58547,-8.81167 0.97813,-10.75518 0.61201,-13.79301 -0.36613,-3.03783 -0.4876,-7.16832 -0.86023,-13.67935 -0.37264,-6.51103 -0.99689,-15.40296 -0.9486,-19.66897 0.0483,-4.26601 0.75789,-3.90161 2.02402,-3.29437 1.26613,0.60723 3.08873,1.45783 7.11849,2.80524 4.02976,1.3474 10.26681,3.19372 19.04052,4.4228 8.77371,1.22908 20.08547,1.84389 30.60478,2.21176 10.51931,0.36787 20.24655,0.48926 25.46644,1.57246 5.21989,1.08319 5.93829,3.11629 6.47772,8.86969 0.53944,5.7534 0.90376,15.22876 -1.34658,23.24955 -2.25034,8.02078 -7.11369,14.59567 -13.17812,17.277 -6.06442,2.68132 -13.3425,1.46887 -17.04202,-0.27543 -3.69952,-1.74429 -3.80963,-4.02899 -3.50149,-6.38846 0.30814,-2.35947 1.03695,-4.78966 2.25163,-8.78432 1.21468,-3.99466 2.91524,-9.55372 5.16248,-15.49253 2.24723,-5.9388 5.04125,-12.25568 6.86277,-16.91457 1.82152,-4.65889 2.67035,-7.66177 5.10481,-9.69641 2.43445,-2.03465 6.44577,-3.09261 10.59153,-6.39854 4.14576,-3.30594 8.43395,-8.8631 9.1863,-13.21625 0.75235,-4.35315 -2.04158,-7.51142 -4.10926,-9.22016 -2.06767,-1.70874 -3.41122,-1.95953 -4.87451,-0.40393 -1.46328,1.5556 -3.03279,4.91534 -5.21474,10.72709 -2.18195,5.81175 -4.97636,14.07394 -6.61657,19.0558 -1.64022,4.98185 -2.12636,6.68271 -1.91236,8.26692 0.21399,1.58421 1.11899,3.04667 0.47356,7.66264 -0.64543,4.61597 -2.83217,12.39048 -5.14032,21.32005 -2.30814,8.92958 -4.73785,19.01369 -7.36013,29.48495 -2.62228,10.47125 -5.43706,21.32988 -7.51461,30.28717 -2.07755,8.95729 -3.41819,16.01237 -4.21028,19.84152 -0.7921,3.82915 -1.03506,4.43504 -0.75233,4.797 0.28272,0.36196 1.07781,0.48343 3.34097,-0.56275 2.26315,-1.04617 6.00259,-3.25649 11.40699,-5.25896 5.40441,-2.00246 12.4698,-3.79709 18.68102,-5.30837 6.21122,-1.51128 11.56795,-2.73929 26.26941,-3.68555 14.70146,-0.94627 38.74525,-1.61218 67.28998,-0.83113 28.54474,0.78106 61.58945,3.00809 81.85945,4.86974 20.2699,1.86165 27.7641,3.35633 34.3335,3.19607 6.5695,-0.16025 12.2195,-1.97111 13.6031,-4.95794 1.3836,-2.98683 -1.5009,-7.16305 -9.3987,-10.74845 -7.8978,-3.58541 -20.8127,-6.57123 -31.4025,-8.5216 -10.5898,-1.95038 -18.8539,-2.86384 -27.5053,-3.32118 -8.6513,-0.45734 -17.6889,-0.45734 -33.57753,-0.45734 -15.88863,0 -38.62835,0 -54.61978,0.16988 -15.99143,0.16989 -25.23419,0.51001 -38.84439,0.53667 -13.61019,0.0267 -31.58836,-0.26063 -49.93078,0.0128 -18.34242,0.27338 -37.04846,1.10805 -55.54469,1.84496 -18.49623,0.73691 -36.78276,1.37597 -58.60709,1.28477 -21.82433,-0.0912 -47.18714,-0.91335 -63.9916,-1.51709 -16.80446,-0.60375 -25.05071,-0.98926 -32.94791,-1.65581 -7.89721,-0.66656 -15.44602,-1.61508 -16.62177,-7.81558 -1.17575,-6.2005 4.03469,-17.6561 11.5359,-25.89416 7.5012,-8.23805 17.28724,-13.25205 25.92579,-18.52795 8.63854,-5.27589 16.13173,-10.81439 28.93234,-19.38668 12.8006,-8.57229 30.90774,-20.17798 43.46369,-29.1841 12.55594,-9.00613 19.56277,-15.4139 26.5996,-21.45106 7.03684,-6.03716 14.10295,-11.70317 27.7469,-20.27445 13.64395,-8.57127 33.8637,-20.04695 47.35487,-27.50395 13.49116,-7.457 20.25312,-10.89519 25.83563,-14.56364 5.58252,-3.66844 9.98886,-7.56854 12.71616,-10.29313 2.72731,-2.72459 3.77774,-4.27647 4.36646,-4.8674 0.58872,-0.59094 0.71019,-0.23074 1.13637,0.67823 0.42617,0.90897 1.1551,2.3667 4.16515,5.29721 3.01004,2.93052 8.29637,7.33678 14.94214,10.83829 6.64577,3.50151 14.64981,6.10337 24.30576,9.52589 9.65594,3.42252 20.9637,7.66505 29.00098,10.79413 8.03729,3.12907 12.80409,5.1441 19.57556,8.50192 6.77146,3.35782 15.54774,8.05715 25.18866,12.01191 9.64088,3.95477 20.14638,7.16769 30.07258,10.1103 9.9262,2.94261 19.2731,5.61516 23.888,6.7503 4.6149,1.13515 4.5067,0.72441 4.3305,-0.20661 -0.1762,-0.93103 -0.4192,-2.38192 -3.2069,-4.83443 -2.7877,-2.4525 -8.1299,-5.90279 -20.3792,-9.44759 -12.2492,-3.54481 -31.40537,-7.1788 -45.46506,-8.98425 -14.05969,-1.80546 -23.02137,-1.78016 -29.87478,-1.56692 -6.85341,0.21323 -11.59767,0.61515 -15.09913,1.00513 -3.50146,0.38999 -5.75914,0.76864 -7.55026,1.01897 -1.79112,0.25032 -3.1166,0.37179 -3.88272,0.43293 -0.76611,0.0611 -0.97385,0.0611 3.82981,-1.21806 4.80367,-1.27922 14.6218,-3.83584 24.73534,-7.48041 10.11353,-3.64457 20.52486,-8.37682 27.98153,-12.81779 7.45667,-4.44096 11.96277,-8.5923 14.88027,-11.63274 2.9174,-3.04044 4.2481,-4.97248 5.0726,-6.22299 0.8245,-1.25052 1.1431,-1.8208 6.7159,2.74142 5.5728,4.56223 16.3872,14.25086 27.1056,20.31235 10.7184,6.06148 21.3395,8.50251 31.1462,11.36882 9.8067,2.86631 18.7987,6.15621 29.8766,11.5326 11.0779,5.37639 24.242,12.837 37.019,20.4796 12.7771,7.6426 25.1672,15.46655 36.6523,27.21789 11.485,11.75135 22.0688,27.42595 39.1262,40.42803 17.0573,13.00209 40.5839,23.3379 54.2284,30.08525 13.6445,6.74735 17.4082,9.90249 19.3464,11.84563 1.9382,1.94314 2.0596,2.67197 1.5115,3.57726 -0.548,0.90529 -1.7643,1.99891 -8.7744,3.47268 -7.0101,1.47376 -19.8218,3.32839 -30.8321,4.18165 -11.0103,0.85325 -20.2209,0.70376 -35.5892,-0.57845 -15.3682,-1.28221 -36.8949,-3.69822 -60.1724,-4.9844 -23.2775,-1.28617 -48.3048,-1.44134 -72.2832,-1.83941 -23.9784,-0.39806 -46.908,-1.03924 -62.8138,-1.42568 -15.9058,-0.38643 -24.78759,-0.51799 -33.2055,-2.98635 -8.4179,-2.46837 -16.37352,-7.28051 -20.48006,-11.08543 -4.10653,-3.80492 -4.35318,-6.60631 -1.03558,-9.93562 3.31759,-3.3293 10.19702,-7.17384 22.94212,-8.44388 12.7451,-1.27004 31.34852,0.0318 50.23202,0.45656 18.8834,0.42476 38.0475,-0.0266 54.5683,-0.0819 16.5208,-0.0554 30.3979,0.28476 41.5351,-0.5863 11.1371,-0.87105 19.5375,-2.95126 23.1049,-5.35372 3.5674,-2.40246 2.3033,-5.14096 -6.8541,-7.39885 -9.1574,-2.25788 -26.2134,-4.02422 -40.8869,-5.03896 -14.6736,-1.01474 -26.964,-1.27697 -42.4594,-1.4082 -15.4955,-0.13122 -34.1957,-0.13122 -45.7947,0.11295 -11.5991,0.24416 -16.0957,0.73345 -17.1072,0.89353 -1.0114,0.16007 1.4619,-0.009 9.8097,-0.63322 8.3478,-0.62385 22.5702,-1.70202 32.3793,-2.62904 9.8092,-0.92702 15.206,-1.70238 20.4351,-2.08945 5.2292,-0.38707 10.2892,-0.38707 20.9967,-0.54305 10.7075,-0.15598 27.0627,-0.46775 38.8236,-0.98848 11.7609,-0.52073 18.9284,-1.24971 25.0603,-2.16117 6.1319,-0.91146 11.2295,-2.00468 3.3437,-4.82226 -7.8858,-2.81758 -28.7592,-7.36364 -44.2478,-9.90954 -15.4886,-2.5459 -25.5913,-3.08966 -37.0981,-3.28405 -11.5067,-0.1944 -24.4167,-0.0387 -37.3367,0.11705"
       id="path4482"
       inkscape:path-effect="#path-effect4484"
       inkscape:original-d="m 777.67183,-371.19488 c 2.21121,-5.64935 4.41242,-11.3087 6.60362,-16.97805 3.78284,-15.67462 7.55567,-31.35923 11.3185,-47.05385 -0.59734,-1.9335 -1.20469,-3.87701 -1.82203,-5.83051 -0.11147,-4.12049 -0.23294,-8.25098 -0.36441,-12.39147 -0.61425,-8.88193 -1.2385,-17.77386 -1.87274,-26.67579 0.71959,0.37441 1.42919,0.73882 2.12879,1.09322 1.83259,0.8606 3.65519,1.71119 5.46779,2.55178 6.24705,1.85632 12.48411,3.70263 18.71116,5.53895 11.32177,0.6248 22.63353,1.2396 33.9353,1.84441 9.73724,0.13138 19.46448,0.25277 29.18172,0.36416 0.72841,2.0431 1.44681,4.0762 2.15521,6.0993 0.37432,9.48536 0.73864,18.96072 1.09296,28.42608 -4.85336,6.5849 -9.71671,13.15979 -14.59006,19.72468 -7.26809,-1.20245 -14.54617,-2.4149 -21.83425,-3.63735 -0.10011,-2.27471 -0.21022,-4.55941 -0.33033,-6.85412 0.73881,-2.42019 1.46762,-4.85038 2.18644,-7.29058 1.71056,-5.54905 3.41113,-11.10811 5.10169,-16.67717 2.80402,-6.30687 5.59805,-12.62374 8.38207,-18.95062 0.85883,-2.99288 1.70766,-5.99576 2.54649,-9.00863 4.02132,-1.04796 8.03264,-2.10592 12.03396,-3.17388 4.29819,-5.54716 8.58637,-11.10432 12.86456,-16.67148 -2.78394,-3.14828 -5.57787,-6.30655 -8.3818,-9.47482 -1.33354,-0.24079 -2.67709,-0.49157 -4.03063,-0.75235 -1.55952,3.36975 -3.12903,6.72949 -4.70855,10.07924 -2.78441,8.27218 -5.57882,16.53437 -8.38323,24.78656 -0.47614,1.71086 -0.96228,3.41172 -1.45842,5.10258 0.91499,1.47246 1.81999,2.93492 2.71499,4.38738 -2.17674,7.78452 -4.36348,15.55903 -6.56021,23.32355 -2.41971,10.09411 -4.84941,20.17823 -7.28912,30.25235 -2.80478,10.86862 -5.61956,21.72725 -8.44434,32.57588 -1.33064,7.06507 -2.67128,14.12015 -4.02191,21.16522 -0.23297,0.61589 -0.47594,1.22178 -0.7289,1.81767 0.80509,0.13147 1.60018,0.25294 2.38528,0.36441 3.74944,-2.20031 7.48888,-4.41063 11.21832,-6.63094 7.07539,-1.78463 14.14078,-3.57926 21.19618,-5.3839 5.36673,-1.21802 10.72346,-2.44604 16.07019,-3.68405 24.05379,-0.65592 48.09758,-1.32183 72.13137,-1.99775 33.05477,2.23704 66.09951,4.46408 99.13431,6.68112 7.5042,1.50467 14.9984,2.99933 22.4825,4.484 5.6601,-1.80087 11.3101,-3.61174 16.9501,-5.43261 -2.8745,-4.16623 -5.759,-8.34247 -8.6536,-12.5287 -12.9048,-2.97581 -25.8197,-5.96161 -38.7445,-8.95742 -8.2541,-0.90346 -16.5182,-1.81692 -24.7923,-2.74039 -9.0276,0.01 -18.0652,0.01 -27.1127,0 -22.72976,0.01 -45.46948,0.01 -68.2192,0 -9.23276,0.35012 -18.47552,0.69024 -27.72828,1.02036 -17.96817,-0.2773 -35.94634,-0.56461 -53.93452,-0.86191 -18.69603,0.84467 -37.40207,1.67934 -56.11811,2.50401 -18.27653,0.64906 -36.56306,1.28812 -54.85959,1.91718 -25.3528,-0.81214 -50.71561,-1.63428 -76.08842,-2.46642 -8.23624,-0.3755 -16.48249,-0.76101 -24.73873,-1.15652 -7.53881,-0.93851 -15.08762,-1.88703 -22.64643,-2.84555 5.22045,-11.4456 10.43089,-22.90121 15.63133,-34.36682 9.79605,-5.004 19.58209,-10.01801 29.35814,-15.04201 7.50321,-5.52851 14.99641,-11.06701 22.47961,-16.61552 18.11715,-11.59568 36.22429,-23.20137 54.32143,-34.81706 7.01683,-6.39777 14.02365,-12.80555 21.02048,-19.22332 7.0761,-5.65601 14.14221,-11.32201 21.19831,-16.99801 20.22974,-11.46567 40.44949,-22.94134 60.65923,-34.42701 6.77196,-3.4282 13.53391,-6.8664 20.28587,-10.3146 4.41633,-3.8901 8.82267,-7.7902 13.219,-11.70029 1.06043,-1.54188 2.11086,-3.09375 3.15128,-4.65562 0.13147,0.3702 0.25294,0.7304 0.36441,1.08061 0.73893,1.46774 1.46786,2.92547 2.1868,4.37321 5.29633,4.41627 10.58266,8.82253 15.85899,13.2188 8.01405,2.61187 16.01809,5.21374 24.01214,7.80561 11.31776,4.25254 22.62552,8.49508 33.92329,12.72761 4.77679,2.02503 9.54359,4.04005 14.30038,6.04508 8.78628,4.70933 17.56256,9.40866 26.32884,14.09799 10.51555,3.22292 21.02105,6.43585 31.51655,9.63878 9.3569,2.68254 18.7038,5.35508 28.0406,8.01762 -0.098,-0.4007 -0.2064,-0.8114 -0.3247,-1.2321 -0.2329,-1.44088 -0.4759,-2.89176 -0.7288,-4.35264 -5.3322,-3.44029 -10.6744,-6.89057 -16.0266,-10.35085 -19.1462,-3.624 -38.30235,-7.258 -57.46853,-10.902 -8.95169,0.0353 -17.91337,0.0606 -26.88506,0.0759 -4.73425,0.41191 -9.47851,0.81383 -14.23277,1.20574 -2.24767,0.38865 -4.50534,0.7673 -6.77302,1.13595 -1.31548,0.13146 -2.64096,0.25293 -3.97644,0.3644 -0.19774,0.01 -0.40548,0.01 -0.62321,0 9.82813,-2.54662 19.64627,-5.10324 29.4544,-7.66987 10.42134,-4.72226 20.83267,-9.45452 31.23401,-14.19678 4.51609,-4.14134 9.02218,-8.29268 13.51832,-12.45402 1.3407,-1.92203 2.6714,-3.85407 3.9921,-5.7961 0.3286,-0.56028 0.6473,-1.13055 0.956,-1.71083 10.8245,9.69867 21.6389,19.38734 32.4434,29.066 10.6311,2.45103 21.2522,4.89205 31.8633,7.32308 9.0019,3.29989 17.9939,6.58979 26.9759,9.86968 13.174,7.47059 26.3381,14.93118 39.4922,22.38177 12.4002,7.83393 24.7904,15.65787 37.1705,23.47181 10.5939,15.68461 21.1777,31.35923 31.7515,47.02384 23.5365,10.34579 47.0631,20.68157 70.5796,31.00736 3.7738,3.16517 7.5375,6.32033 11.2913,9.4655 0.1314,0.73881 0.2529,1.46763 0.3644,2.18644 -1.2063,1.10362 -2.4226,2.19724 -3.6489,3.28086 -12.8017,1.86463 -25.6134,3.71926 -38.4351,5.56388 -9.2007,-0.13949 -18.4113,-0.28899 -27.632,-0.44848 -21.5166,-2.406 -43.0433,-4.82201 -64.58,-7.24801 -25.0174,-0.14517 -50.0447,-0.30035 -75.0821,-0.46552 -22.9196,-0.63118 -45.8492,-1.27236 -68.7889,-1.92354 -8.8717,-0.12156 -17.75354,-0.25311 -26.64533,-0.39466 -7.94562,-4.80214 -15.90124,-9.61428 -23.86687,-14.43642 -0.23664,-2.79139 -0.48329,-5.59278 -0.73993,-8.40417 6.88942,-3.83454 13.76885,-7.67908 20.63827,-11.53362 18.61349,1.31183 37.21696,2.61367 55.81046,3.9055 19.1742,-0.44133 38.3383,-0.89266 57.4925,-1.35398 13.887,0.35012 27.7641,0.69023 41.6311,1.02035 8.4104,-2.07021 16.8108,-4.15043 25.2012,-6.24064 -1.2541,-2.72851 -2.5182,-5.46701 -3.7923,-8.21552 -17.046,-1.75634 -34.102,-3.52268 -51.168,-5.29902 -12.2804,-0.25223 -24.5708,-0.51446 -36.8713,-0.78669 -18.6902,0.01 -37.3904,0.01 -56.1006,0 -4.4867,0.49928 -8.9833,0.98857 -13.48993,1.46786 2.48323,-0.15946 4.95653,-0.32891 7.41983,-0.50836 14.2324,-1.06817 28.4548,-2.14634 42.6671,-3.23451 5.4068,-0.76536 10.8036,-1.54071 16.1903,-2.32607 5.07,0.01 10.13,0.01 15.18,0 16.3652,-0.30177 32.7204,-0.61354 49.0656,-0.93531 7.1775,-0.71897 14.345,-1.44795 21.5025,-2.18693 5.1077,-1.08323 10.2053,-2.17647 15.293,-3.2797 -20.8634,-4.53606 -41.7368,-9.08213 -62.6202,-13.63819 -10.0927,-0.53376 -20.1954,-1.07753 -30.3082,-1.63129 -12.9001,0.16566 -25.8101,0.32132 -38.7302,0.46699" /><path
       d="M -0.0693467,78.041267 V -169.4274 c 0,-141.38754 114.5749967,-255.99999 255.9699967,-255.99999 h 247.4967 c 4.7113,0 8.5333,3.81902 8.5333,8.53133 v 247.46867 c 0,141.387537 -114.6351,255.999992 -256.0361,255.999992 H 8.463953 c -4.7172997,0 -8.5332997,-3.819016 -8.5332997,-8.531335 z"
       id="path11"
       style="fill:url(#linearGradient4161);fill-opacity:1;stroke-width:6.00235"
       inkscape:connector-curvature="0" /><path
       style="fill:url(#linearGradient12237);fill-opacity:1;fill-rule:evenodd;stroke:none;stroke-width:8.937;stroke-linecap:butt;stroke-linejoin:round;stroke-miterlimit:4;stroke-dasharray:none;stroke-opacity:1"
       d="M 9.371517,-9.64645 C 6.4593047,-28.579093 3.5435996,-47.534443 3.6724519,-61.194326 3.8013041,-74.854209 6.9667764,-83.16599 11.490194,-92.719857 c 4.523419,-9.553863 10.394488,-20.320933 15.698699,-28.508223 5.30421,-8.18728 10.037724,-13.78871 15.052324,-19.34 5.0146,-5.55128 10.313324,-11.05579 19.365076,-19.57561 9.051752,-8.51982 21.856004,-20.05427 31.393945,-28.45888 9.537942,-8.40462 15.806902,-13.6771 23.004542,-20.9312 7.19764,-7.2541 15.31819,-16.48397 26.05743,-27.1535 10.73924,-10.66954 24.08285,-22.76494 33.15469,-30.5293 9.07184,-7.76436 13.85037,-11.17923 17.79955,-14.8262 3.94918,-3.64698 7.06507,-7.52314 8.99413,-10.23189 1.92906,-2.70875 2.64969,-4.20505 3.07672,-4.8147 0.42704,-0.60965 0.51009,-0.2635 0.59598,0.0945 0.51546,1.44879 1.03035,2.896 3.16128,5.81529 2.13093,2.91929 5.85717,7.28453 10.07693,11.91088 4.21976,4.62634 8.89889,9.4762 13.98382,14.48451 5.08493,5.00832 10.55506,10.15431 14.97725,13.72862 4.4222,3.57431 7.79298,5.57696 12.58124,8.91417 4.78826,3.33721 10.99431,8.0077 12.32871,8.8211 1.3344,0.81341 -2.2073,-2.23509 -5.81957,-4.92189 -3.61227,-2.6868 -7.31009,-5.02372 -9.16135,-6.19366 -1.85125,-1.16994 -1.85125,-1.16994 -2.75276,-0.79643 -0.90152,0.3735 -2.56208,1.06149 0.25298,-0.93136 2.81506,-1.99284 10.17731,-6.69605 15.45032,-11.10903 5.27301,-4.41297 8.45944,-8.53881 10.52296,-11.56062 2.06352,-3.0218 3.00451,-4.94199 3.58773,-6.18499 0.58321,-1.243 0.80856,-1.80977 4.74991,2.72312 3.94135,4.5329 11.58865,14.16208 19.16847,20.18644 7.57982,6.02435 15.0904,8.4504 22.02512,11.29923 6.93471,2.84884 13.2933,6.11854 21.12675,11.46196 7.83345,5.34341 17.14228,12.75823 26.17736,20.35389 9.03508,7.59567 17.79666,15.37158 25.9177,27.05019 8.12105,11.67861 15.60528,27.25699 27.66782,40.17989 12.06254,12.9229 28.69908,23.19527 38.34723,29.90102 9.64815,6.70575 12.30962,9.84151 13.68003,11.77226 1.3704,1.930762 1.4563,2.655096 -2.64089,4.224995 -4.09718,1.569898 -12.34204,3.985967 -21.94209,5.356072 -9.60005,1.370105 -20.5487,1.690764 -33.07916,0.966038 -12.53046,-0.724726 -26.61158,-2.491843 -40.72739,-4.263314"
       id="path4482-6-7"
       sodipodi:nodetypes="cccccccccccccccccccccccccccccccccccccccc"
       inkscape:original-d="M 9.371517,-9.64645 C 6.460131,-28.57922 3.544426,-47.53457 0.624411,-66.51244 c 3.178098,-8.34131 6.343572,-16.65309 9.520474,-24.99851 5.86969,-10.76225 11.74076,-21.52932 17.613209,-32.30121 4.735909,-5.60244 9.469427,-11.20387 14.200554,-16.80431 5.305803,-5.49458 10.604533,-10.99908 15.896183,-16.51353 12.81133,-11.5245 25.615579,-23.05895 38.412749,-34.60333 6.27138,-5.27293 12.54033,-10.54542 18.81089,-15.82082 8.12508,-9.23273 16.24564,-18.46259 24.36869,-27.69758 13.35531,-12.10395 26.69892,-24.19935 40.05747,-36.31034 4.78483,-3.41786 9.56335,-6.83273 14.34491,-10.25127 3.11701,-3.87567 6.23289,-7.75183 9.34766,-11.62847 0.7434,-1.54114 1.46403,-3.03744 2.2284,-4.62704 0.0892,0.36973 0.25768,1.07398 0.25768,1.07398 0,0 1.03067,2.89589 1.54637,4.34636 3.74576,4.38829 7.472,8.75353 11.2145,13.13767 4.69697,4.86861 9.3761,9.71846 14.06984,14.5832 5.47609,5.15194 10.94621,10.29794 16.4104,15.43802 3.37785,2.0126 6.74863,4.01525 10.11234,6.00797 6.21311,4.68041 12.41916,9.3509 18.61816,14.01145 -3.52805,-3.03661 -7.06975,-6.08511 -10.60108,-9.12483 -3.69331,-2.3337 -7.39113,-4.67061 -11.09347,-7.01076 0.001,0.001 0.001,0.001 0,0 -1.80253,0.74822 -3.46309,1.43621 -5.19623,2.15285 7.36932,-4.69328 14.73157,-9.39649 22.08675,-14.10964 3.19352,-4.11592 6.37996,-8.24176 9.55932,-12.37756 0.94805,-1.91024 1.88905,-3.83042 2.82296,-5.76052 0.23237,-0.55685 0.45773,-1.12362 0.67603,-1.70034 7.65442,9.63913 15.30169,19.26834 22.94196,28.88758 7.51765,2.43599 15.02824,4.86202 22.53174,7.27814 6.36559,3.27962 12.72418,6.54933 19.07569,9.80908 9.31584,7.42474 18.62468,14.83954 27.92643,22.24439 8.76874,7.78584 17.53031,15.56176 26.28475,23.32773 7.49135,15.58832 14.97555,31.16672 22.45269,46.73518 16.64356,10.28228 33.28012,20.55462 49.90952,30.81703 2.66861,3.14573 5.33005,6.28152 7.98451,9.40739 0.0929,0.73428 0.17883,1.45861 0.25768,2.17302 -8.27865,2.427265 -16.52351,4.843333 -24.78119,7.261866 -10.94274,0.321514 -21.89139,0.642173 -32.84599,0.961977 -14.10646,-1.769423 -28.18758,-3.53654 -42.30328,-5.308872"
       inkscape:path-effect="#path-effect4484-3-2" /><path
       style="fill:none;fill-rule:evenodd;stroke:#000000;stroke-width:8.93663979;stroke-linecap:butt;stroke-linejoin:round;stroke-miterlimit:4;stroke-dasharray:none;stroke-opacity:1"
       d="m 134.20816,-70.097209 c 1.55504,-5.61913 3.1116,-11.243742 4.33208,-17.028982 1.22048,-5.785241 2.10163,-11.714035 3.11677,-18.253729 1.01515,-6.53969 2.15552,-13.63495 2.73535,-22.3565 0.57983,-8.72155 0.58564,-18.71948 0.67183,-25.83043 0.0862,-7.11095 0.24665,-10.83034 2.00972,-12.53308 1.76308,-1.70273 5.07802,-1.29072 8.74508,-0.16421 3.66706,1.12652 7.63772,2.95546 11.36116,3.24226 3.72343,0.2868 7.17776,-0.97092 12.05136,-2.15459 4.87361,-1.18367 11.15106,-2.28886 14.54197,-1.82508 3.3909,0.46379 3.89891,2.4844 4.28048,8.20286 0.38157,5.71847 0.63919,15.13566 -0.95295,23.1089 -1.59214,7.97324 -5.03119,14.50776 -9.3183,17.17113 -4.2871,2.66338 -9.43371,1.45837 -12.05022,-0.27543 -2.61652,-1.73381 -2.69438,-4.00448 -2.47667,-6.34851 0.21772,-2.34404 0.73309,-4.7593 1.59204,-8.72943 0.85894,-3.97013 2.06148,-9.49507 3.47146,-15.22729 1.40997,-5.73222 3.02692,-11.66839 4.31577,-16.30274 1.28885,-4.63435 2.24536,-7.95191 4.1457,-10.14504 1.90035,-2.19314 4.7369,-3.24461 7.66859,-6.52899 2.93169,-3.28438 5.96402,-8.80743 6.49687,-13.13557 0.53284,-4.32814 -1.44286,-7.46703 -2.90446,-9.16505 -1.4616,-1.69803 -2.41167,-1.94727 -4.78271,0.12704 -2.37105,2.07431 -6.14251,6.46118 -7.54207,11.96222 -1.39955,5.50105 -0.42293,12.073 -0.0312,16.43714 0.39171,4.36414 0.19412,6.44049 0.21568,9.20397 0.0216,2.76347 0.262,6.12497 -0.1807,10.23391 -0.44271,4.10895 -1.56797,8.92544 -3.21859,16.91159 -1.65062,7.98615 -3.82294,19.12493 -4.95144,29.70198 -1.12851,10.577053 -1.21456,20.577882 -1.90298,28.831043 -0.68841,8.253162 -1.96635,14.670583 -2.70243,18.2355 -0.73608,3.564918 -0.90439,4.1548 -0.70614,4.520583 0.19824,0.365784 0.7529,0.484882 2.35687,-0.553952 1.60396,-1.038834 4.24398,-3.232015 7.28568,-4.566615 3.0417,-1.3346 6.47475,-1.80454 10.0852,-2.650068 3.61044,-0.845527 7.39839,-2.066003 17.79508,-3.006723 10.3967,-0.940719 27.39898,-1.602548 47.58438,-0.82627 20.18539,0.776278 43.55255,2.989642 57.88648,4.839981 14.33393,1.850339 19.63336,3.335838 24.27725,3.176926 4.64389,-0.158912 8.63922,-1.958656 9.61859,-4.927936 0.97937,-2.969279 -1.06039,-7.11987 -6.88454,-9.259751 -5.82414,-2.139881 -15.436,-2.258326 -23.9285,-2.673422 -8.4925,-0.415096 -15.8372,-1.124809 -24.77066,-1.987789 -8.93345,-0.862979 -19.39654,-1.873516 -29.64466,-3.397844 -10.24812,-1.524329 -20.22434,-3.554513 -28.48646,-4.402655 -8.26212,-0.848142 -14.79803,-0.51011 -24.42213,-0.483614 -9.6241,0.0265 -22.33715,-0.259044 -33.54316,0.268162 -11.20601,0.527206 -20.90271,1.868016 -33.98806,2.600731 -13.08535,0.732716 -29.53216,0.856478 -46.731235,0.510073 -17.199077,-0.346406 -35.134083,-1.163501 -47.017109,-1.763536 -11.883027,-0.600036 -17.714265,-0.983176 -23.298469,-1.64559 -5.584205,-0.662415 -10.922257,-1.605111 -10.661197,-7.458604 0.261059,-5.85349 6.132128,-16.62056 11.436338,-24.80785 5.30421,-8.18728 10.037724,-13.78871 15.052325,-19.34 5.014601,-5.55128 10.313324,-11.05579 19.365075,-19.57561 9.051752,-8.51982 21.856004,-20.05427 31.393946,-28.45888 9.537946,-8.40462 15.806896,-13.6771 23.004546,-20.9312 7.19764,-7.2541 15.31819,-16.48397 26.05743,-27.1535 10.73924,-10.66954 24.08285,-22.76494 33.15469,-30.5293 9.07184,-7.76436 13.85037,-11.17923 17.79955,-14.8262 3.94918,-3.64698 7.06507,-7.52314 8.99413,-10.23189 1.92906,-2.70875 2.64969,-4.20505 3.07672,-4.8147 0.42704,-0.60965 0.51009,-0.2635 0.59598,0.0945 0.51546,1.44879 1.03035,2.896 3.16128,5.81529 2.13093,2.91929 5.85717,7.28453 10.07693,11.91088 4.21976,4.62634 8.89889,9.4762 13.98382,14.48451 5.08493,5.00832 10.55506,10.15431 14.97725,13.72862 4.4222,3.57431 7.79298,5.57696 12.58124,8.91417 4.78826,3.33721 10.99431,8.0077 17.8119,11.93811 6.81759,3.9304 14.24643,7.12361 21.2656,10.04814 7.01916,2.92453 13.62872,5.58068 16.89145,6.70819 3.26273,1.12751 3.1862,0.71931 3.06165,-0.20589 -0.12455,-0.92521 -0.29634,-2.36719 -2.26729,-4.80404 -1.97095,-2.43685 -5.74863,-5.86596 -14.41038,-9.38915 -8.66174,-3.5232 -22.20776,-7.13487 -32.1504,-8.92938 -9.94265,-1.7945 -16.27979,-1.76937 -22.39887,-1.30814 -6.11908,0.46124 -12.25683,1.39565 -15.14382,1.82453 -2.88699,0.42887 -3.0339,0.42887 0.36202,-0.84215 3.39592,-1.27101 10.3387,-3.81194 17.48996,-7.43362 7.15125,-3.62168 14.5135,-8.32489 19.78651,-12.73787 5.27301,-4.41297 8.45944,-8.53881 10.52296,-11.56062 2.06352,-3.0218 3.00451,-4.94199 3.58773,-6.18499 0.58321,-1.243 0.80856,-1.80977 4.74991,2.72312 3.94135,4.5329 11.58865,14.16208 19.16847,20.18644 7.57982,6.02435 15.0904,8.4504 22.02512,11.29923 6.93471,2.84884 13.2933,6.11854 21.12675,11.46196 7.83345,5.34341 17.14228,12.75823 26.17736,20.35389 9.03508,7.59567 17.79666,15.37158 25.9177,27.05019 8.12105,11.67861 15.60528,27.25699 27.66782,40.17989 12.06254,12.9229 28.69908,23.19527 38.34723,29.90102 9.64815,6.70575 12.30962,9.84151 13.68003,11.77226 1.3704,1.930759 1.4563,2.655102 1.06751,3.556745 -0.38878,0.901642 -1.24888,1.988559 -6.20527,3.451805 -4.95638,1.463245 -14.01601,3.306486 -21.80124,4.154396 -7.78522,0.847909 -14.29838,0.699335 -25.16556,-0.574955 -10.86719,-1.274289 -26.08953,-3.675466 -42.55029,-4.953799 -16.46075,-1.278334 -34.15851,-1.432554 -51.11448,-1.828171 -16.95596,-0.395617 -33.17035,-1.032862 -44.21474,-2.053024 -11.04439,-1.020162 -16.9183,-2.424627 -22.8776,-4.883667 -5.95929,-2.45904 -11.97754,-5.95963 -15.08516,-9.10362 -3.10763,-3.14399 -3.28204,-5.92817 -0.93745,-9.23573 2.3446,-3.30756 7.20931,-7.1285 16.22351,-8.39183 9.01421,-1.26333 22.16938,0.0305 35.52225,0.45264 13.35286,0.42214 26.90453,-0.0264 38.58721,-0.0814 11.68268,-0.055 21.49569,0.28301 29.37021,-0.58239 7.87451,-0.86539 13.81482,-2.93285 16.3382,-5.32131 2.52338,-2.38847 1.62948,-5.11017 -4.84562,-7.3537 -6.4751,-2.24353 -18.53604,-3.99902 -28.91251,-5.00757 -10.37647,-1.00856 -19.06748,-1.26917 -30.02497,-1.39959 -10.9575,-0.13042 -24.18112,-0.13042 -32.38364,0.11231 -8.20252,0.24273 -11.38225,0.729 -12.09734,0.88806 -0.7151,0.15906 1.03387,-0.009 6.93689,-0.62937 5.90302,-0.62001 15.96022,-1.69156 22.89639,-2.61281 6.93616,-0.92124 10.75244,-1.69185 14.45071,-2.07665 3.69827,-0.3848 7.27639,-0.3848 14.848,-0.53982 7.57162,-0.15502 19.137,-0.46487 27.45327,-0.98235 8.31627,-0.51749 13.38467,-1.24199 17.7204,-2.14768 4.33573,-0.90569 7.94045,-1.9922 2.36537,-4.79257 -5.57508,-2.80037 -20.33546,-7.31852 -31.28838,-9.84893 -10.95292,-2.5304 -18.09693,-3.07083 -26.23402,-3.26404 -8.13709,-0.19321 -17.26623,-0.0385 -26.40235,0.11633"
       id="path4482-6"
       sodipodi:nodetypes="ccccccccccccccccccccccccccccccccccccccccccccccccccccccccccccccccccccccccccccccccccccccccccccccccccccccccccccccccccccccccc"
       inkscape:original-d="m 134.20816,-70.097209 c 1.55596,-5.618876 3.11252,-11.243489 4.66968,-16.873827 0.88372,-5.94027 1.76486,-11.869066 2.64678,-17.808764 1.14838,-7.13967 2.28876,-14.23493 3.4416,-21.41315 0.007,-10.26502 0.0125,-20.26295 0.0178,-30.62843 0.16711,-3.85639 0.32757,-7.57578 0.49175,-11.39904 3.36111,0.41864 6.67605,0.83064 10.02164,1.24557 3.98839,1.83778 7.95905,3.66672 11.94251,5.50089 3.46406,-1.26002 6.91839,-2.51773 10.38138,-3.77986 6.28401,-1.10522 12.56146,-2.21043 18.8323,-3.31558 0.51509,2.03056 1.02309,4.05117 1.52403,6.06185 0.26469,9.42714 0.52231,18.84433 0.77287,28.25159 -3.432,6.54448 -6.87105,13.079 -10.31718,19.6036 -5.13955,-1.19507 -10.28616,-2.40007 -15.43983,-3.61502 -0.0708,-2.26075 -0.14865,-4.53142 -0.2336,-6.81205 0.52245,-2.40533 1.03781,-4.8206 1.54612,-7.24582 1.2096,-5.51499 2.41214,-11.03993 3.60761,-16.5748 1.61658,-5.93124 3.23353,-11.86741 4.85085,-17.80853 0.96039,-3.32757 1.9169,-6.64512 2.87714,-9.97909 2.84362,-1.04154 5.68018,-2.09299 8.50967,-3.15441 3.03941,-5.51311 6.07175,-11.03615 9.09702,-16.56914 -1.96863,-3.12894 -3.94433,-6.26783 -5.92709,-9.41665 -0.943,-0.23932 -1.89307,-0.48856 -2.85022,-0.74773 -3.78206,4.40101 -7.55353,8.78787 -11.33501,13.18459 0.98203,6.60453 1.95864,13.17648 2.94205,19.7978 -0.19972,2.10712 -0.39732,4.18347 -0.59919,6.29638 0.24483,3.41391 0.48527,6.77541 0.72713,10.16556 -1.12701,4.828 -2.25227,9.64449 -3.38054,14.46988 -2.17301,11.14687 -4.34531,22.28565 -6.51694,33.41629 -0.0856,10.023299 -0.17159,20.024128 -0.25857,30.049665 -1.2897,6.480951 -2.56763,12.898374 -3.86733,19.420521 -0.17242,0.607776 -0.34074,1.197653 -0.51543,1.806511 0.57011,0.12326 1.12477,0.242354 1.68671,0.362175 2.64694,-2.197359 5.28695,-4.390543 7.93291,-6.590237 3.43682,-0.46937 6.86987,-0.939309 10.29916,-1.409822 3.79502,-1.210543 7.58296,-2.431025 11.36384,-3.661435 17.00935,-0.651894 34.01163,-1.313717 51.00683,-1.985487 23.37432,2.223308 46.74148,4.436677 70.10164,6.640108 5.3065,1.495433 10.60594,2.980919 15.89823,4.456475 4.00247,-1.789816 7.9978,-3.58957 11.98607,-5.399262 -2.03267,-4.140657 -4.07241,-8.29126 -6.1193,-12.451796 -9.60321,-0.117321 -19.21507,-0.235805 -28.83539,-0.355334 -7.36476,-0.710727 -14.70946,-1.420432 -22.07847,-2.133425 -10.4979,-1.012956 -20.96099,-2.023504 -31.4581,-3.038256 -9.99921,-2.034002 -19.97543,-4.064199 -29.97013,-6.098988 -6.52884,0.347971 -13.06475,0.686006 -19.60773,1.014094 -12.70597,-0.275593 -25.41902,-0.561145 -38.13914,-0.856621 -9.69153,1.341197 -19.38823,2.681994 -29.09007,4.022427 -16.469,0.124919 -32.91581,0.248688 -49.386478,0.371634 -17.927931,-0.807155 -35.862937,-1.624247 -53.805015,-2.451285 -5.824158,-0.373196 -11.655396,-0.75634 -17.493696,-1.149419 -5.330979,-0.932744 -10.66903,-1.875448 -16.014151,-2.828087 5.86969,-10.762256 11.74076,-21.529326 17.613209,-32.301216 4.735909,-5.60244 9.469427,-11.20387 14.200554,-16.80431 5.305805,-5.49458 10.604532,-10.99908 15.896187,-16.51353 12.811325,-11.5245 25.615574,-23.05895 38.412744,-34.60333 6.271386,-5.27293 12.540336,-10.54542 18.810896,-15.82082 8.12508,-9.23273 16.24564,-18.46259 24.36869,-27.69758 13.35531,-12.10395 26.69892,-24.19935 40.05747,-36.31034 4.78483,-3.41786 9.56335,-6.83273 14.34491,-10.25127 3.11701,-3.87567 6.23289,-7.75183 9.34766,-11.62847 0.7434,-1.54114 1.46403,-3.03744 2.2284,-4.62704 0.0892,0.36973 0.25768,1.07398 0.25768,1.07398 0,0 1.03067,2.89589 1.54637,4.34636 3.74576,4.38829 7.472,8.75353 11.2145,13.13767 4.69697,4.86861 9.3761,9.71846 14.06984,14.5832 5.47609,5.15194 10.94621,10.29794 16.4104,15.43802 3.37785,2.0126 6.74863,4.01525 10.11234,6.00797 6.21311,4.68041 12.41916,9.3509 18.61816,14.01145 7.4359,3.20313 14.86474,6.39634 22.28651,9.57961 6.61661,2.66607 13.22617,5.32222 19.82857,7.9684 -0.0693,-0.39823 -0.14596,-0.80641 -0.2296,-1.22453 -0.16469,-1.43203 -0.33653,-2.87401 -0.51536,-4.32592 -3.7706,-3.41917 -7.54829,-6.84828 -11.33302,-10.28732 -13.53901,-3.60175 -27.08502,-7.21344 -40.63818,-10.83507 -6.33009,0.0351 -12.66723,0.0602 -19.01145,0.0754 -5.89382,0.89838 -12.03157,1.8328 -17.66588,2.68947 -0.13983,0.009 -0.28674,0.009 -0.4407,0 6.94984,-2.53098 13.89263,-5.0719 20.82833,-7.62278 7.36932,-4.69328 14.73157,-9.39649 22.08675,-14.10964 3.19352,-4.11592 6.37996,-8.24176 9.55932,-12.37756 0.94805,-1.91024 1.88905,-3.83042 2.82296,-5.76052 0.23237,-0.55685 0.45773,-1.12362 0.67603,-1.70034 7.65442,9.63913 15.30169,19.26834 22.94196,28.88758 7.51765,2.43599 15.02824,4.86202 22.53174,7.27814 6.36559,3.27962 12.72418,6.54933 19.07569,9.80908 9.31584,7.42474 18.62468,14.83954 27.92643,22.24439 8.76874,7.78584 17.53031,15.56176 26.28475,23.32773 7.49135,15.58832 14.97555,31.16672 22.45269,46.73518 16.64356,10.28228 33.28012,20.55462 49.90952,30.81703 2.66861,3.14573 5.33005,6.28152 7.98451,9.407394 0.0929,0.734273 0.17883,1.458612 0.25768,2.173014 -0.85301,1.096842 -1.71311,2.18376 -2.58028,3.26072 -9.05257,1.853181 -18.1122,3.696428 -27.17891,5.529727 -6.50618,-0.138636 -13.01934,-0.287219 -19.53964,-0.445726 -15.21521,-2.391227 -30.43755,-4.792413 -45.66698,-7.203522 -17.69081,-0.144286 -35.38857,-0.298506 -53.09348,-0.462662 -16.20731,-0.62731 -32.4217,-1.264544 -48.64324,-1.911736 -5.86705,-1.401995 -11.74096,-2.806469 -17.62157,-4.213369 -6.03805,-3.51152 -12.05629,-7.01212 -18.09752,-10.52666 -0.16734,-2.77427 -0.34175,-5.55845 -0.52324,-8.35258 4.87177,-3.81101 9.73648,-7.63195 14.5941,-11.46282 13.16237,1.30377 26.31754,2.59762 39.46571,3.88152 13.5588,-0.43862 27.11047,-0.88718 40.65513,-1.34568 9.82003,0.34798 19.63304,0.68599 29.43893,1.01409 5.94732,-2.0575 11.88763,-4.12495 17.8208,-6.20233 -0.88683,-2.71175 -1.78072,-5.43345 -2.68169,-8.16509 -12.05394,-1.74556 -24.11488,-3.50104 -36.1829,-5.26649 -8.68394,-0.25068 -17.37495,-0.5113 -26.0731,-0.78185 -13.21655,0.009 -26.44017,0.009 -39.67087,0 -3.1727,0.49621 -6.35242,0.98249 -9.53921,1.45884 1.75596,-0.15848 3.50493,-0.32689 5.24682,-0.50524 10.06427,-1.06161 20.12147,-2.13316 30.17152,-3.21465 3.82336,-0.76066 7.63964,-1.53125 11.44878,-2.31179 3.58519,0.009 7.16331,0.009 10.73436,0 11.57245,-0.29993 23.13783,-0.60978 34.69614,-0.92956 5.07549,-0.71457 10.14389,-1.43907 15.20531,-2.17352 3.61185,-1.07659 7.21656,-2.16311 10.81426,-3.25957 -14.75337,-4.5082 -29.51375,-9.02638 -44.28119,-13.55447 -7.13693,-0.53049 -14.28094,-1.07092 -21.43208,-1.62127 -9.12216,0.16464 -18.2513,0.31934 -27.38759,0.46413"
       inkscape:path-effect="#path-effect4484-3" /><path
       style="fill:none;fill-rule:evenodd;stroke:#000000;stroke-width:6.35852;stroke-linecap:butt;stroke-linejoin:round;stroke-miterlimit:4;stroke-dasharray:none;stroke-opacity:1"
       d="m 766.97749,-674.37705 c 1.6013,-4.78482 3.20414,-9.57424 4.46088,-14.50039 1.25675,-4.92616 2.1641,-9.97458 3.20942,-15.54318 1.04533,-5.56861 2.21961,-11.61029 2.81666,-19.03673 0.59705,-7.42645 0.60303,-15.93977 0.69178,-21.99482 0.0888,-6.05504 0.25397,-9.22213 2.06945,-10.67202 1.81547,-1.44989 5.22896,-1.09906 9.00502,-0.13983 3.77606,0.95922 7.86477,2.51658 11.69899,2.76079 3.83423,0.24421 7.39125,-0.82675 12.40971,-1.83464 5.01846,-1.00789 11.48253,-1.94897 14.97428,-1.55386 3.49175,0.39512 4.01486,2.11569 4.40771,6.98485 0.39286,4.86916 0.65814,12.88798 -0.98089,19.67652 -1.63902,6.78854 -5.18031,12.35273 -9.59561,14.62127 -4.41529,2.26854 -9.7149,1.24247 -12.40892,-0.23378 -2.69401,-1.47625 -2.77419,-3.40974 -2.54991,-5.4061 0.22428,-1.99636 0.75497,-4.05298 1.63945,-7.43358 0.88448,-3.38061 2.12277,-8.08514 3.57459,-12.96586 1.45181,-4.88073 3.11683,-9.93543 4.444,-13.88162 1.32717,-3.9462 2.31211,-6.77112 4.26955,-8.63873 1.95744,-1.86762 4.87832,-2.76296 7.89703,-5.56017 3.01871,-2.79721 6.14119,-7.50013 6.68943,-11.18481 0.54825,-3.68468 -1.48619,-6.35747 -2.99158,-7.80347 -1.5054,-1.44599 -2.48372,-1.65823 -4.92486,0.10806 -2.44115,1.76629 -6.32474,5.50174 -7.76597,10.18602 -1.44124,4.68428 -0.43558,10.28035 -0.0322,13.99642 0.40336,3.71608 0.19989,5.48411 0.22209,7.83725 0.0222,2.35314 0.26979,5.21549 -0.18606,8.71424 -0.45586,3.49876 -1.61457,7.60004 -3.31427,14.40032 -1.6997,6.80029 -3.9366,16.28504 -5.09866,25.29152 -1.16206,9.00648 -1.25067,17.52227 -1.95954,24.54988 -0.70887,7.0276 -2.02481,12.49209 -2.78276,15.52763 -0.75796,3.03555 -0.93127,3.53784 -0.72717,3.84935 0.20409,0.31151 0.77524,0.41292 2.42701,-0.47171 1.65176,-0.88463 4.37025,-2.75214 7.50233,-3.88851 3.13207,-1.13637 6.66718,-1.53653 10.38547,-2.25664 3.7183,-0.72012 7.61885,-1.75936 18.32416,-2.56025 10.70531,-0.80089 28.21305,-1.36444 48.99833,-0.70344 20.78528,0.66099 44.84712,2.54569 59.60701,4.12121 14.75989,1.57552 20.21687,2.84043 24.99984,2.70493 4.78297,-0.1355 8.89708,-1.668 9.90494,-4.19598 1.00785,-2.52797 -1.09255,-6.06224 -7.08992,-7.88449 -5.99736,-1.82226 -15.89497,-1.92311 -24.63996,-2.27657 -8.745,-0.35346 -16.30805,-0.95779 -25.50708,-1.69262 -9.19904,-0.73484 -19.97319,-1.59532 -30.52599,-2.8933 -10.5528,-1.29798 -20.8256,-3.0267 -29.33323,-3.7489 -8.50763,-0.7222 -15.23785,-0.43436 -25.14819,-0.4118 -9.91034,0.0226 -23.00134,-0.22057 -34.54043,0.22835 -11.5391,0.44891 -21.52406,1.59063 -34.99845,2.21454 -13.4744,0.62392 -30.41015,0.7293 -48.12061,0.43433 -17.71046,-0.29497 -36.17866,-0.99073 -48.41499,-1.50167 -12.23632,-0.51094 -18.24092,-0.83718 -23.99128,-1.40126 -5.75035,-0.56408 -11.2471,-1.3668 -10.97799,-6.35114 0.2691,-4.98433 6.31471,-14.15258 11.77664,-21.12412 5.46192,-6.97155 10.33617,-11.74122 15.50058,-16.46881 5.16441,-4.72758 10.62066,-9.41471 19.94155,-16.66935 9.32089,-7.25463 22.5058,-17.07631 32.32654,-24.23234 9.82073,-7.15604 16.27606,-11.64559 21.40039,-16.75513 5.12433,-5.10953 8.91498,-10.83682 19.97307,-19.92133 11.05809,-9.08451 29.36908,-21.51669 40.99865,-29.19577 11.62957,-7.67908 16.55015,-10.58687 20.61672,-13.69233 4.06657,-3.10545 7.27509,-6.40604 9.26147,-8.71256 1.98637,-2.30651 2.72842,-3.58062 3.16812,-4.09966 0.43969,-0.51904 0.5252,-0.22432 0.61365,0.0805 0.53078,1.23365 1.06101,2.46601 3.25527,4.95178 2.19427,2.48577 6.03128,6.20282 10.37648,10.14219 4.34521,3.93936 9.16345,8.06906 14.39955,12.33368 5.2361,4.26462 10.86884,8.64647 15.42219,11.68988 4.55335,3.0434 8.02433,4.74868 12.95501,7.59034 4.93068,2.84167 11.32124,6.81862 18.34141,10.16543 7.02017,3.34682 14.66986,6.06586 21.8977,8.55613 7.22785,2.49027 14.0339,4.752 17.39403,5.71238 3.36013,0.96038 3.28131,0.61279 3.15304,-0.17507 -0.12827,-0.78786 -0.30516,-2.01572 -2.33491,-4.09099 -2.02975,-2.07527 -5.91974,-4.99519 -14.83912,-7.99515 -8.91938,-2.99995 -22.8681,-6.07533 -33.10601,-7.60329 -10.23792,-1.52797 -16.76346,-1.50657 -23.06444,-1.11383 -6.30098,0.39274 -12.6212,1.1884 -15.59404,1.5536 -2.97284,0.36519 -3.12411,0.36519 0.37337,-0.71727 3.49747,-1.08247 10.64666,-3.24609 18.01075,-6.33024 7.36409,-3.08415 14.94521,-7.08897 20.37484,-10.84697 5.42964,-3.75799 8.7108,-7.27118 10.83537,-9.84421 2.12457,-2.57303 3.09354,-4.20808 3.69398,-5.26642 0.60044,-1.05834 0.83248,-1.54096 4.89068,2.3194 4.05819,3.86037 11.93284,12.05969 19.7377,17.18943 7.80486,5.12974 15.53872,7.19554 22.67959,9.62129 7.14086,2.42574 13.68848,5.20993 21.75492,9.75988 8.06645,4.54996 17.65198,10.86372 26.95578,17.33153 9.3037,6.46782 18.3258,13.08904 26.6885,23.03376 8.3628,9.94472 16.0695,23.20984 28.4902,34.21348 12.4207,11.00363 29.5519,19.75066 39.4872,25.46076 9.9352,5.71009 12.6758,8.38023 14.087,10.02451 1.4113,1.64428 1.4997,2.26102 1.1,3.0279 -0.3996,0.76689 -1.2853,1.69237 -6.3894,2.93903 -5.1041,1.24667 -14.4331,2.81621 -22.4501,3.53827 -8.017,0.72206 -14.7238,0.59554 -25.9143,-0.48955 -11.1904,-1.0851 -26.8653,-3.12972 -43.8152,-4.2182 -16.9499,-1.08849 -35.17383,-1.21981 -52.63393,-1.55668 -17.46009,-0.33687 -34.15652,-0.87949 -45.52922,-1.74817 -11.37269,-0.86868 -17.42124,-2.0646 -23.5577,-4.1585 -6.13646,-2.09391 -12.33363,-5.07469 -15.5336,-7.75172 -3.19997,-2.67704 -3.37956,-5.0478 -0.96441,-7.86485 2.41515,-2.81705 7.42448,-6.07061 16.70566,-7.1458 9.28118,-1.07519 22.82745,0.0265 36.57748,0.38598 13.75004,0.35946 27.70458,-0.0225 39.73447,-0.0693 12.02989,-0.0469 22.13455,0.24098 30.24385,-0.49608 8.1093,-0.73705 14.2262,-2.49752 16.8241,-4.53094 2.5978,-2.03343 1.6774,-4.35099 -4.9905,-6.2616 -6.6679,-1.9106 -19.0874,-3.40542 -29.77217,-4.26419 -10.68477,-0.85876 -19.63416,-1.08068 -30.91737,-1.19174 -11.2832,-0.11105 -24.89995,-0.11105 -33.34606,0.0956 -8.44612,0.20666 -11.72037,0.62073 -12.45682,0.75619 -0.73645,0.13545 1.0645,-0.008 7.14304,-0.5359 6.07853,-0.52795 16.43472,-1.44038 23.57726,-2.22488 7.14254,-0.78449 11.07228,-1.44066 14.88014,-1.76827 3.80787,-0.3276 7.49236,-0.3276 15.28911,-0.4596 7.79676,-0.132 19.70597,-0.39584 28.26967,-0.83651 8.5637,-0.44067 13.7828,-1.05759 18.2477,-1.82889 4.4649,-0.7713 8.1768,-1.69648 2.4351,-4.08098 -5.7417,-2.38449 -20.9408,-6.23172 -32.21917,-8.38631 -11.27834,-2.15459 -18.63473,-2.61476 -27.01359,-2.77928 -8.37885,-0.16451 -17.77939,-0.0328 -27.18718,0.0991"
       id="path4482-6-5"
       inkscape:path-effect="#path-effect4484-3-7"
       inkscape:original-d="m 766.97749,-674.37705 c 1.60221,-4.78452 3.20505,-9.57393 4.8085,-14.36821 0.90999,-5.05819 1.81733,-10.10661 2.72547,-15.16431 1.18252,-6.07949 2.3568,-12.12117 3.54391,-18.23348 0.007,-8.74075 0.0129,-17.25407 0.0183,-26.08037 0.17208,-3.28375 0.33731,-6.45084 0.50637,-9.70638 3.46103,0.35648 6.87452,0.7073 10.31957,1.06062 4.10696,1.56488 8.19567,3.12224 12.29755,4.68405 3.56705,-1.07292 7.12407,-2.14387 10.69001,-3.21858 6.47083,-0.94111 12.9349,-1.8822 19.39217,-2.82325 0.5304,1.72904 1.05351,3.44961 1.56934,5.16172 0.27256,8.02729 0.53784,16.04611 0.79584,24.05647 -3.53403,5.57268 -7.07532,11.13688 -10.6239,16.69263 -5.29234,-1.01761 -10.59195,-2.04368 -15.89884,-3.07822 -0.0729,-1.92505 -0.15307,-3.85854 -0.24054,-5.80052 0.53798,-2.04816 1.06866,-4.10478 1.59208,-6.16988 1.24556,-4.69606 2.48385,-9.40059 3.71486,-14.11358 1.66464,-5.0505 3.32966,-10.1052 4.99506,-15.16411 0.98895,-2.83346 1.97389,-5.65838 2.96268,-8.49728 2.92816,-0.88688 5.84905,-1.7822 8.76265,-2.68601 3.12977,-4.69446 6.25226,-9.39737 9.36747,-14.10876 -2.02716,-2.66432 -4.06159,-5.33711 -6.1033,-8.01836 -0.97103,-0.20378 -1.94935,-0.41601 -2.93495,-0.6367 -3.8945,3.7475 -7.77809,7.48295 -11.67199,11.22679 1.01122,5.62382 2.01687,11.21989 3.02951,16.858 -0.20565,1.79423 -0.40913,3.56226 -0.617,5.36142 0.25211,2.90697 0.4997,5.76932 0.74875,8.65606 -1.16052,4.11108 -2.31923,8.21236 -3.48104,12.32122 -2.23761,9.49166 -4.4745,18.97642 -6.71069,28.45426 -0.0881,8.53492 -0.17669,17.05071 -0.26625,25.58754 -1.32804,5.51858 -2.64397,10.98307 -3.98231,16.53674 -0.17754,0.51752 -0.35086,1.01981 -0.53075,1.53826 0.58706,0.10495 1.15821,0.20636 1.73686,0.30839 2.72563,-1.87107 5.44412,-3.73858 8.16874,-5.61164 3.539,-0.39967 7.07411,-0.79983 10.60535,-1.20048 3.90784,-1.03078 7.80839,-2.07003 11.70168,-3.11774 17.51502,-0.55509 35.02276,-1.11864 52.52321,-1.69066 24.06922,1.89317 48.13106,3.77787 72.1857,5.65411 5.46426,1.27337 10.92124,2.53828 16.37087,3.79473 4.12146,-1.52405 8.23557,-3.05655 12.3424,-4.59752 -2.0931,-3.5258 -4.19348,-7.06008 -6.30122,-10.60281 -9.8887,-0.0999 -19.78631,-0.20079 -29.69264,-0.30257 -7.58371,-0.60519 -15.14676,-1.20951 -22.73484,-1.81663 -10.80999,-0.86254 -21.58414,-1.72303 -32.39332,-2.5871 -10.29648,-1.73197 -20.56928,-3.4607 -30.86112,-5.19334 -6.72293,0.2963 -13.45315,0.58414 -20.19064,0.86351 -13.08371,-0.23467 -26.17471,-0.47782 -39.27299,-0.72942 -9.97965,1.14204 -19.96462,2.28374 -29.95489,3.42513 -16.95861,0.10637 -33.89436,0.21176 -50.85469,0.31645 -18.46091,-0.6873 -36.92911,-1.38306 -55.40459,-2.08729 -5.9973,-0.31778 -12.0019,-0.64403 -18.01377,-0.97874 -5.48946,-0.79424 -10.98621,-1.59696 -16.49023,-2.40814 6.04419,-9.16415 12.0898,-18.3324 18.13683,-27.50476 4.8767,-4.77052 9.75095,-9.54019 14.62272,-14.30901 5.46355,-4.67868 10.9198,-9.36581 16.36877,-14.06141 13.19219,-9.81321 26.3771,-19.63489 39.55472,-29.46503 6.45783,-4.48994 12.91315,-8.97951 19.37013,-13.47156 3.79194,-5.72733 7.58259,-11.45462 11.37193,-17.18189 18.32658,-12.44142 36.63757,-24.8736 54.96956,-37.32139 4.92708,-2.91034 9.84766,-5.81813 14.77137,-8.72905 3.20967,-3.30016 6.41819,-6.60075 9.62555,-9.90174 0.76551,-1.31229 1.50756,-2.5864 2.29465,-3.93996 0.0918,0.31483 0.26534,0.9145 0.26534,0.9145 0,0 1.06131,2.46588 1.59235,3.70096 3.85711,3.73667 7.69413,7.45371 11.54789,11.18684 4.83661,4.14566 9.65485,8.27535 14.48813,12.41772 5.63889,4.38692 11.27163,8.76878 16.89826,13.1456 3.47827,1.71375 6.94926,3.41902 10.41297,5.11584 6.39782,3.98541 12.78837,7.96237 19.17166,11.93087 7.65697,2.72749 15.30666,5.44654 22.94907,8.15712 6.81332,2.27018 13.61937,4.53191 20.41806,6.78516 -0.0714,-0.3391 -0.1503,-0.68667 -0.23643,-1.0427 -0.16959,-1.21939 -0.34653,-2.44724 -0.53068,-3.68356 -3.8827,-2.91145 -7.77269,-5.83137 -11.66994,-8.75974 -13.94151,-3.06692 -27.89023,-6.1423 -41.84632,-9.22615 -6.51827,0.0299 -13.04381,0.0513 -19.57664,0.0642 -6.06904,0.76498 -12.38926,1.56065 -18.19107,2.29011 -0.14399,0.008 -0.29526,0.008 -0.4538,0 7.15645,-2.15515 14.30564,-4.31877 21.44753,-6.49086 7.58841,-3.99637 15.16953,-8.00119 22.74337,-12.01448 3.28846,-3.50474 6.56963,-7.01793 9.84351,-10.5396 0.97624,-1.62658 1.94521,-3.26163 2.90689,-4.90513 0.23928,-0.47416 0.47134,-0.95677 0.69613,-1.44785 7.88197,8.2078 15.75659,16.40715 23.624,24.59802 7.74114,2.07426 15.47501,4.14005 23.20159,6.19739 6.55483,2.79263 13.10245,5.57681 19.64279,8.35252 9.59279,6.32223 19.17832,12.63599 28.75662,18.94128 9.0295,6.62971 18.0515,13.25097 27.0662,19.86376 7.7141,13.27359 15.4208,26.53873 23.1202,39.7954 17.1383,8.75545 34.2695,17.50244 51.3933,26.24096 2.7479,2.67862 5.4885,5.34877 8.2219,8.01048 0.096,0.62524 0.1841,1.24202 0.2653,1.85034 -0.8784,0.93397 -1.764,1.85949 -2.657,2.77653 -9.3217,1.578 -18.6507,3.14754 -27.9869,4.70861 -6.6996,-0.11805 -13.4064,-0.24457 -20.1205,-0.37954 -15.6676,-2.03615 -31.3425,-4.08078 -47.0247,-6.13386 -18.2167,-0.12286 -36.44059,-0.25418 -54.67185,-0.39396 -16.68914,-0.53416 -33.38557,-1.07677 -50.08936,-1.62786 -6.04147,-1.19381 -12.09001,-2.38973 -18.14545,-3.58772 -6.21755,-2.99009 -12.41471,-5.97088 -18.63554,-8.96354 -0.17231,-2.36231 -0.35191,-4.73307 -0.53879,-7.11229 5.0166,-3.24511 10.02593,-6.49867 15.02797,-9.76069 13.55367,1.11017 27.09993,2.2119 40.63898,3.30515 13.9619,-0.37349 27.91644,-0.75544 41.86377,-1.14586 10.11197,0.29631 20.21667,0.58413 30.31417,0.86351 6.1241,-1.75198 12.241,-3.51243 18.3505,-5.28134 -0.9131,-2.30908 -1.8336,-4.62663 -2.7614,-6.95264 -12.4123,-1.48636 -24.8318,-2.98117 -37.25855,-4.48446 -8.9421,-0.21346 -17.89149,-0.43538 -26.84823,-0.66576 -13.60946,0.008 -27.22621,0.008 -40.85024,0 -3.26703,0.42253 -6.54128,0.8366 -9.82281,1.24222 1.80817,-0.13495 3.60913,-0.27835 5.40281,-0.43022 10.36347,-0.90397 20.71966,-1.8164 31.06849,-2.7373 3.93702,-0.64771 7.86676,-1.30387 11.78914,-1.96851 3.69178,0.008 7.37627,0.008 11.05348,0 11.91649,-0.25539 23.82571,-0.51923 35.72761,-0.79153 5.2264,-0.60846 10.4455,-1.22538 15.6574,-1.85077 3.7192,-0.91672 7.4311,-1.8419 11.1357,-2.77555 -15.192,-3.83877 -30.3911,-7.68604 -45.5976,-11.54174 -7.34911,-0.45172 -14.7055,-0.9119 -22.06924,-1.38053 -9.39335,0.14019 -18.79389,0.27192 -28.2018,0.39521"
       sodipodi:nodetypes="ccccccccccccccccccccccccccccccccccccccccccccccccccccccccccccccccccccccccccccccccccccccccccccccccccccccccccccccccccccccccc" /></g></svg>
