<?xml version="1.0" encoding="UTF-8" standalone="no"?>
<svg
   xmlns:dc="http://purl.org/dc/elements/1.1/"
   xmlns:cc="http://creativecommons.org/ns#"
   xmlns:rdf="http://www.w3.org/1999/02/22-rdf-syntax-ns#"
   xmlns:svg="http://www.w3.org/2000/svg"
   xmlns="http://www.w3.org/2000/svg"
   xmlns:sodipodi="http://sodipodi.sourceforge.net/DTD/sodipodi-0.dtd"
   xmlns:inkscape="http://www.inkscape.org/namespaces/inkscape"
   id="svg2"
   viewBox="0 0 19 19"
   height="19"
   width="19"
   version="1.1"
   sodipodi:docname="charging_station.svg"
   inkscape:version="1.0.1 (3bc2e813f5, 2020-09-07)">
  <metadata
     id="metadata9">
    <rdf:RDF>
      <cc:Work
         rdf:about="">
        <dc:format>image/svg+xml</dc:format>
        <dc:type
           rdf:resource="http://purl.org/dc/dcmitype/StillImage" />
        <dc:title></dc:title>
      </cc:Work>
    </rdf:RDF>
  </metadata>
  <defs
     id="defs7" />
  <sodipodi:namedview
     pagecolor="#000000"
     bordercolor="#666666"
     borderopacity="1"
     objecttolerance="10"
     gridtolerance="10"
     guidetolerance="10"
     inkscape:pageopacity="0"
     inkscape:pageshadow="2"
     inkscape:window-width="1265"
     inkscape:window-height="815"
     id="namedview5"
     showgrid="false"
     inkscape:zoom="26.646761"
     inkscape:cx="11.072689"
     inkscape:cy="11.478506"
     inkscape:window-x="2574"
     inkscape:window-y="70"
     inkscape:window-maximized="0"
     inkscape:current-layer="svg2" />
  <path
     fill="#ffffff"
     d="m 5.0044794,2.8916703 c -1.1655277,0 -2,0.7955215 -2,2 V 15.89167 H 10.004479 V 8.0166703 c 0,0 0.875,-0.125 0.875,0.8749999 V 12.89167 c 0,2 1.864698,2.125 2.125,2.125 0.275652,0 2.125,-0.124975 2.125,-2.125 V 8.8916702 c 0,0 1.387558,0.017377 1.375,-2.96875 h -0.75 V 3.9229203 c 0,-0.5671583 -0.75,-0.5637421 -0.75,-0.03125 v 2 h -1 v -2 c 0,-0.5461843 -0.75,-0.5451872 -0.75,0 v 2 h -0.75 c 0.01252,2.9863903 1.375,2.9999999 1.375,2.9999999 V 12.89167 c 0,0.874159 -0.767136,0.875 -0.875,0.875 -0.107864,0 -0.875,-0.04279 -0.875,-0.875 V 8.8916702 c 0,-1.2809083 -1.125,-2.125 -2.125,-2.125 V 4.8916703 c 0,-1.2224558 -0.816495,-2 -1.9999996,-2 z m 0.96875,2 h 2.75 l -1.71875,2.6666666 h 2.0625 l -3.78125,5.3333331 h -0.6875 l 1.375,-3.9999998 h -1.71875 z"
     id="path2"
     style="stroke-width:1" />
</svg>
