<?xml version="1.0" encoding="UTF-8" standalone="no"?>
<svg
   version="1.1"
   width="14"
   height="14"
   viewBox="0 0 14 14"
   id="svg2"
   sodipodi:docname="hike.svg"
   inkscape:version="1.1.2 (0a00cf5339, 2022-02-04)"
   xmlns:inkscape="http://www.inkscape.org/namespaces/inkscape"
   xmlns:sodipodi="http://sodipodi.sourceforge.net/DTD/sodipodi-0.dtd"
   xmlns="http://www.w3.org/2000/svg"
   xmlns:svg="http://www.w3.org/2000/svg"
   xmlns:rdf="http://www.w3.org/1999/02/22-rdf-syntax-ns#"
   xmlns:cc="http://creativecommons.org/ns#"
   xmlns:dc="http://purl.org/dc/elements/1.1/">
  <sodipodi:namedview
     id="namedview7"
     pagecolor="#ffffff"
     bordercolor="#666666"
     borderopacity="1.0"
     inkscape:pageshadow="2"
     inkscape:pageopacity="0.0"
     inkscape:pagecheckerboard="0"
     showgrid="false"
     inkscape:zoom="51.142857"
     inkscape:cx="7"
     inkscape:cy="7.0097765"
     inkscape:window-width="1920"
     inkscape:window-height="1136"
     inkscape:window-x="1920"
     inkscape:window-y="0"
     inkscape:window-maximized="1"
     inkscape:current-layer="svg2" />
  <metadata
     id="metadata8">
    <rdf:RDF>
      <cc:Work
         rdf:about="">
        <dc:format>image/svg+xml</dc:format>
        <dc:type
           rdf:resource="http://purl.org/dc/dcmitype/StillImage" />
      </cc:Work>
    </rdf:RDF>
  </metadata>
  <defs
     id="defs6" />
  <rect
     width="14"
     height="14"
     x="0"
     y="0"
     id="canvas"
     style="fill:none;stroke:none;visibility:hidden" />
  <path
     id="path757"
     d="m 7.5252145,0.04334742 c -0.6016478,0 -1.0917481,0.48653547 -1.0917481,1.08872398 0,0.60354 0.4901002,1.088724 1.0917481,1.088724 0.6013779,0 1.088724,-0.485184 1.088724,-1.088724 0,-0.60218851 -0.4876164,-1.08872398 -1.088724,-1.08872398 z M 4.5463448,1.8064755 C 4.376878,1.7678257 4.2094498,1.8662585 4.1713399,2.033293 L 3.4092331,5.1936167 c -0.041082,0.1675748 0.061455,0.3328402 0.2298418,0.3750049 l 0.9072699,0.2177448 c 0.1654128,0.04351 0.3368951,-0.059239 0.375005,-0.2268175 L 5.6834565,2.4022494 C 5.7242692,2.2346745 5.6212409,2.066114 5.4566392,2.0242203 Z M 7.2076701,2.3901524 C 6.3192528,2.367716 6.0947523,3.3004466 6.0947523,3.3004468 L 3.7902866,12.984041 c -0.00811,0.05162 -0.012093,0.102613 -0.012093,0.154237 -3.9e-6,0.424883 0.3432678,0.76513 0.7681512,0.76513 0.3456908,0 0.6383469,-0.231967 0.7318646,-0.547387 L 6.5967751,7.9063537 7.8488075,13.322755 c 0.081084,0.334879 0.3858376,0.580653 0.7439615,0.580653 0.4232618,0 0.7621068,-0.340518 0.7621068,-0.765132 0,-0.05785 -0.00263,-0.114489 -0.012093,-0.169357 L 7.6189697,5.7712453 7.7641329,5.1391806 7.8760301,5.638179 c 0.102167,0.3251501 0.3991986,0.3538353 0.3991986,0.3538353 l 1.7722013,0.453635 c 0.03622,0.00619 0.07239,0.00907 0.108871,0.00907 0.290282,0 0.523192,-0.2304255 0.523192,-0.5201681 -3e-6,-0.24785 -0.169513,-0.4592529 -0.402226,-0.5141207 L 8.7409564,5.0363566 8.3205879,3.3216163 C 8.1194979,2.3656295 7.2076701,2.3901524 7.2076701,2.3901524 Z m 4.7419979,1.1068695 c -0.12731,0 -0.221229,0.095312 -0.247987,0.2177448 L 9.8720195,13.634251 c 0,0.0065 -0.00302,0.01192 -0.00302,0.01517 0,0.13866 0.1128975,0.251011 0.2510115,0.251011 0.125684,0 0.233713,-0.09693 0.251011,-0.217745 l 1.826633,-9.9195326 v -0.018146 c 0,-0.135145 -0.10988,-0.247987 -0.247987,-0.2479865 z"
     style="fill:#010101;stroke-width:0.270282;fill-opacity:1"
     sodipodi:nodetypes="sssssccccccccccccsscccssccccccssccccsccssccss" />
</svg>
