<?xml version="1.0" encoding="UTF-8" standalone="no"?>
<!-- Generator: Adobe Illustrator 13.0.2, SVG Export Plug-In . SVG Version: 6.00 Build 14948)  -->

<svg
   version="1.1"
   id="Layer_1"
   x="0px"
   y="0px"
   width="123.547px"
   height="123.539px"
   viewBox="-0.258 -0.548 123.547 123.539"
   style="enable-background:new -0.258 -0.548 123.547 123.539;"
   xml:space="preserve"
   sodipodi:docname="horseback-riding.svg"
   inkscape:version="1.1.2 (0a00cf5339, 2022-02-04)"
   xmlns:inkscape="http://www.inkscape.org/namespaces/inkscape"
   xmlns:sodipodi="http://sodipodi.sourceforge.net/DTD/sodipodi-0.dtd"
   xmlns="http://www.w3.org/2000/svg"
   xmlns:svg="http://www.w3.org/2000/svg"><defs
   id="defs15" /><sodipodi:namedview
   id="namedview13"
   pagecolor="#ffffff"
   bordercolor="#666666"
   borderopacity="1.0"
   inkscape:pageshadow="2"
   inkscape:pageopacity="0.0"
   inkscape:pagecheckerboard="0"
   showgrid="false"
   inkscape:zoom="5.7957405"
   inkscape:cx="61.769501"
   inkscape:cy="61.68323"
   inkscape:window-width="1920"
   inkscape:window-height="1136"
   inkscape:window-x="1920"
   inkscape:window-y="0"
   inkscape:window-maximized="1"
   inkscape:current-layer="g10" />
<g
   id="g10">
	
	
	<path
   style="fill:#231F20;"
   d="M52.312,24.074c3.93,0,7.109-3.172,7.109-7.078c0-3.938-3.18-7.109-7.109-7.109   c-3.906,0-7.078,3.172-7.078,7.109C45.234,20.902,48.406,24.074,52.312,24.074z"
   id="path6" />
	<path
   style="fill:#231F20;"
   d="M105.023,44.504l-7.516-1.438l-4.375,8.695c0.711,0.164,1.445,0.242,2.195,0.242   C99.992,52.004,103.898,48.832,105.023,44.504z M12.664,59.184c0-5.766,4.664-10.453,10.43-10.453h21.992V32.934   c0-3.93,3.172-7.102,7.109-7.102c3.93,0,7.102,3.172,7.102,7.102v2.445l10.477,2.68c1.828,0.422,3,2.25,2.586,4.078   c-0.414,1.859-2.25,3.008-4.102,2.594l-8.961-2.102v6.102h10.547l28.859-29.859l-0.859,7.766l14.211,9.445   c2.344,1.344,3.195,4.375,1.859,6.719c-1.055,1.875-3.156,2.781-5.133,2.414l-1.148-0.211c-1.367,5.531-6.367,9.609-12.305,9.609   c-1.172,0-2.312-0.172-3.391-0.461L81.172,76.145v30.172c0,2.586-2.125,4.688-4.711,4.688s-4.688-2.102-4.688-4.688V75.457H48.016   l-4.25,7.273l8.891,21.195c1.297,2.273,0.484,5.125-1.758,6.398c-2.273,1.289-5.125,0.484-6.422-1.758L34.102,84.098v-7.789   l-4.641,7.305v22.703c0,2.586-2.102,4.688-4.688,4.688s-4.711-2.102-4.711-4.688V80.098l3.883-6.078V53.457l-3.859,5.906V76.48   h-7.422V59.184z"
   id="path8" />
</g>
</svg>
