<?xml version="1.0" encoding="UTF-8" standalone="no"?>
<svg
   xmlns:dc="http://purl.org/dc/elements/1.1/"
   xmlns:cc="http://creativecommons.org/ns#"
   xmlns:rdf="http://www.w3.org/1999/02/22-rdf-syntax-ns#"
   xmlns:svg="http://www.w3.org/2000/svg"
   xmlns="http://www.w3.org/2000/svg"
   xmlns:sodipodi="http://sodipodi.sourceforge.net/DTD/sodipodi-0.dtd"
   xmlns:inkscape="http://www.inkscape.org/namespaces/inkscape"
   width="64"
   height="64"
   viewBox="0 0 16.933333 16.933333"
   version="1.1"
   id="svg8"
   inkscape:version="1.0.1 (3bc2e813f5, 2020-09-07)"
   sodipodi:docname="new-place.svg">
  <defs
     id="defs2" />
  <sodipodi:namedview
     id="base"
     pagecolor="#ffffff"
     bordercolor="#666666"
     borderopacity="1.0"
     inkscape:pageopacity="0.0"
     inkscape:pageshadow="2"
     inkscape:zoom="7.9195959"
     inkscape:cx="10.951043"
     inkscape:cy="44.271284"
     inkscape:document-units="mm"
     inkscape:current-layer="g849"
     inkscape:document-rotation="0"
     showgrid="false"
     units="px"
     inkscape:window-width="1920"
     inkscape:window-height="1136"
     inkscape:window-x="1920"
     inkscape:window-y="0"
     inkscape:window-maximized="1" />
  <metadata
     id="metadata5">
    <rdf:RDF>
      <cc:Work
         rdf:about="">
        <dc:format>image/svg+xml</dc:format>
        <dc:type
           rdf:resource="http://purl.org/dc/dcmitype/StillImage" />
        <dc:title />
      </cc:Work>
    </rdf:RDF>
  </metadata>
  <g
     inkscape:label="Vrstva 1"
     inkscape:groupmode="layer"
     id="layer1">
    <g
       id="g849"
       transform="matrix(0.26458333,0,0,0.26458333,1.3134673,4.3845239)">
      <path
         style="color:#000000;font-style:normal;font-variant:normal;font-weight:normal;font-stretch:normal;font-size:medium;line-height:normal;font-family:sans-serif;font-variant-ligatures:normal;font-variant-position:normal;font-variant-caps:normal;font-variant-numeric:normal;font-variant-alternates:normal;font-variant-east-asian:normal;font-feature-settings:normal;font-variation-settings:normal;text-indent:0;text-align:start;text-decoration:none;text-decoration-line:none;text-decoration-style:solid;text-decoration-color:#000000;letter-spacing:normal;word-spacing:normal;text-transform:none;writing-mode:lr-tb;direction:ltr;text-orientation:mixed;dominant-baseline:auto;baseline-shift:baseline;text-anchor:start;white-space:normal;shape-padding:0;shape-margin:0;inline-size:0;clip-rule:nonzero;display:inline;overflow:visible;visibility:visible;opacity:1;isolation:auto;mix-blend-mode:normal;color-interpolation:sRGB;color-interpolation-filters:linearRGB;solid-color:#000000;solid-opacity:1;vector-effect:none;fill:#000000;fill-opacity:0.79905683;fill-rule:nonzero;stroke:none;stroke-width:3.28218;stroke-linecap:butt;stroke-linejoin:miter;stroke-miterlimit:4;stroke-dasharray:none;stroke-dashoffset:0;stroke-opacity:1;color-rendering:auto;image-rendering:auto;shape-rendering:auto;text-rendering:auto;enable-background:accumulate;stop-color:#000000;stop-opacity:1"
         d="m 24.980638,-12.926012 c -4.326094,0 -9.009737,1.305058 -12.69179,4.3734204 -3.6820523,3.0683619 -6.2458554,7.94627224 -6.2458554,14.566113 0,5.0772656 3.511925,11.7450666 7.3878154,18.1486556 3.875889,6.40359 8.203216,12.28464 10.281406,14.824706 l 1.345813,1.645931 1.251436,-1.719545 c 0.891656,-1.226017 0.404285,-0.459308 1.277155,-1.719502 l 2.221209,-6.904238 -0.923057,-0.832171 c 0,0 -3.486033,5.078341 -3.93622,5.709153 C 22.763153,32.336019 19.443848,27.755669 16.23946,22.461508 12.464255,16.224264 9.3254171,9.3632594 9.3254171,6.0135214 c 0,-5.7992817 2.0931629,-9.5684646 5.0642579,-12.0443654 2.971096,-2.4759007 6.933475,-3.6127429 10.590963,-3.6127429 3.657487,0 7.621754,1.1368422 10.592851,3.6127429 2.971096,2.4759009 5.064258,6.24508379 5.064258,12.0443654 0,1.5102311 -0.944811,5.0859046 -2.268404,7.3038936 l 1.438624,3.627157 c 1.685745,-2.824859 4.112205,-8.0059041 4.112205,-10.9310506 0,-6.61984086 -2.563802,-11.4977512 -6.245856,-14.566113 -3.682054,-3.0683614 -8.367584,-4.3734204 -12.693678,-4.3734204 z"
         id="path871"
         sodipodi:nodetypes="sssscccccccssssssccsss" />
      <g
         id="g867"
         transform="matrix(1.9397166,0,0,1.9397166,-8.0250568,-0.95059645)"
         style="fill:#000000;fill-opacity:1;stroke:#000000;stroke-width:0.999344;stroke-linecap:round;stroke-linejoin:round;stroke-miterlimit:4;stroke-dasharray:none;stroke-opacity:1">
        <path
           fill="#000000"
           d="m 23.234323,7.6390701 -1.932837,4.8320929 h -4.832091 l 3.865673,3.382464 -1.932836,5.798509 4.832091,-3.382464 4.832091,3.382464 -1.932836,-5.798509 3.865673,-3.382464 H 25.16716 Z"
           id="path855"
           style="fill:#000000;fill-opacity:1;stroke:#000000;stroke-width:0.999344;stroke-linecap:round;stroke-linejoin:round;stroke-miterlimit:4;stroke-dasharray:none;stroke-opacity:1" />
      </g>
    </g>
  </g>
</svg>
